<?xml version="1.0" encoding="windows-1252" standalone="no"?>
<svg xmlns="http://www.w3.org/2000/svg" xmlns:xlink="http://www.w3.org/1999/xlink" contentStyleType="text/css" height="737px" preserveAspectRatio="none" style="width:1339px;height:737px;background:#FFFFFF;" version="1.1" viewBox="0 0 1339 737" width="1339px" zoomAndPan="magnify"><defs/><g><!--entity _Entry______--><g id="elem__Entry______"><ellipse cx="1275.5" cy="159" fill="#F1F1F1" rx="8" ry="8" style="stroke:#181818;stroke-width:0.5;"/><text fill="#000000" font-family="sans-serif" font-size="14" lengthAdjust="spacing" textLength="84" x="1233.5" y="188.9951">'Entry'():&lt;&gt;</text></g><!--entity public_static_main_java.lang.String____void--><g id="elem_public_static_main_java.lang.String____void"><ellipse cx="1097.5" cy="294" fill="#F1F1F1" rx="8" ry="8" style="stroke:#181818;stroke-width:0.5;"/><text fill="#000000" font-family="sans-serif" font-size="14" lengthAdjust="spacing" textLength="295" x="950" y="323.9951">public static main(java.lang.String[]):void</text></g><!--entity public_Bookstore__--><g id="elem_public_Bookstore__"><ellipse cx="533.5" cy="429" fill="#F1F1F1" rx="8" ry="8" style="stroke:#181818;stroke-width:0.5;"/><text fill="#000000" font-family="sans-serif" font-size="14" lengthAdjust="spacing" textLength="133" x="467" y="458.9951">public Bookstore()</text></g><!--entity public_Catalog__--><g id="elem_public_Catalog__"><ellipse cx="329.5" cy="564" fill="#F1F1F1" rx="8" ry="8" style="stroke:#181818;stroke-width:0.5;"/><text fill="#000000" font-family="sans-serif" font-size="14" lengthAdjust="spacing" textLength="113" x="273" y="593.9951">public Catalog()</text></g><!--entity public_CRM_kieker.examples.monitoring.application.Catalog_--><g id="elem_public_CRM_kieker.examples.monitoring.application.Catalog_"><ellipse cx="656.5" cy="564" fill="#F1F1F1" rx="8" ry="8" style="stroke:#181818;stroke-width:0.5;"/><text fill="#000000" font-family="sans-serif" font-size="14" lengthAdjust="spacing" textLength="441" x="436" y="593.9951">public CRM(kieker.examples.monitoring.application.Catalog)</text></g><!--entity public_searchBook___void--><g id="elem_public_searchBook___void"><ellipse cx="1141.5" cy="429" fill="#F1F1F1" rx="8" ry="8" style="stroke:#181818;stroke-width:0.5;"/><text fill="#000000" font-family="sans-serif" font-size="14" lengthAdjust="spacing" textLength="177" x="1053" y="458.9951">public searchBook():void</text></g><!--entity public_getBook_boolean__void--><g id="elem_public_getBook_boolean__void"><ellipse cx="1008.5" cy="699" fill="#F1F1F1" rx="8" ry="8" style="stroke:#181818;stroke-width:0.5;"/><text fill="#000000" font-family="sans-serif" font-size="14" lengthAdjust="spacing" textLength="213" x="902" y="728.9951">public getBook(boolean):void</text></g><!--entity public_getOffers___void--><g id="elem_public_getOffers___void"><ellipse cx="1008.5" cy="564" fill="#F1F1F1" rx="8" ry="8" style="stroke:#181818;stroke-width:0.5;"/><text fill="#000000" font-family="sans-serif" font-size="14" lengthAdjust="spacing" textLength="163" x="927" y="593.9951">public getOffers():void</text></g><!--entity _Entry_--><g id="elem__Entry_"><rect fill="#F1F1F1" height="46.2969" rx="2.5" ry="2.5" style="stroke:#181818;stroke-width:0.5;" width="87" x="1232" y="7"/><rect fill="#F1F1F1" height="10" style="stroke:#181818;stroke-width:0.5;" width="15" x="1299" y="12"/><rect fill="#F1F1F1" height="2" style="stroke:#181818;stroke-width:0.5;" width="4" x="1297" y="14"/><rect fill="#F1F1F1" height="2" style="stroke:#181818;stroke-width:0.5;" width="4" x="1297" y="18"/><text fill="#000000" font-family="sans-serif" font-size="14" lengthAdjust="spacing" textLength="47" x="1247" y="39.9951">'Entry'</text></g><!--entity kieker.examples.monitoring.application.Main--><g id="elem_kieker.examples.monitoring.application.Main"><rect fill="#F1F1F1" height="46.2969" rx="2.5" ry="2.5" style="stroke:#181818;stroke-width:0.5;" width="369" x="821" y="136"/><rect fill="#F1F1F1" height="10" style="stroke:#181818;stroke-width:0.5;" width="15" x="1170" y="141"/><rect fill="#F1F1F1" height="2" style="stroke:#181818;stroke-width:0.5;" width="4" x="1168" y="143"/><rect fill="#F1F1F1" height="2" style="stroke:#181818;stroke-width:0.5;" width="4" x="1168" y="147"/><text fill="#000000" font-family="sans-serif" font-size="14" lengthAdjust="spacing" textLength="329" x="836" y="168.9951">kieker.examples.monitoring.application.Main</text></g><!--entity kieker.examples.monitoring.application.Bookstore--><g id="elem_kieker.examples.monitoring.application.Bookstore"><rect fill="#F1F1F1" height="46.2969" rx="2.5" ry="2.5" style="stroke:#181818;stroke-width:0.5;" width="411" x="390" y="271"/><rect fill="#F1F1F1" height="10" style="stroke:#181818;stroke-width:0.5;" width="15" x="781" y="276"/><rect fill="#F1F1F1" height="2" style="stroke:#181818;stroke-width:0.5;" width="4" x="779" y="278"/><rect fill="#F1F1F1" height="2" style="stroke:#181818;stroke-width:0.5;" width="4" x="779" y="282"/><text fill="#000000" font-family="sans-serif" font-size="14" lengthAdjust="spacing" textLength="371" x="405" y="303.9951">kieker.examples.monitoring.application.Bookstore</text></g><!--entity kieker.examples.monitoring.application.Catalog--><g id="elem_kieker.examples.monitoring.application.Catalog"><rect fill="#F1F1F1" height="46.2969" rx="2.5" ry="2.5" style="stroke:#181818;stroke-width:0.5;" width="391" x="7" y="406"/><rect fill="#F1F1F1" height="10" style="stroke:#181818;stroke-width:0.5;" width="15" x="378" y="411"/><rect fill="#F1F1F1" height="2" style="stroke:#181818;stroke-width:0.5;" width="4" x="376" y="413"/><rect fill="#F1F1F1" height="2" style="stroke:#181818;stroke-width:0.5;" width="4" x="376" y="417"/><text fill="#000000" font-family="sans-serif" font-size="14" lengthAdjust="spacing" textLength="351" x="22" y="438.9951">kieker.examples.monitoring.application.Catalog</text></g><!--entity kieker.examples.monitoring.application.CRM--><g id="elem_kieker.examples.monitoring.application.CRM"><rect fill="#F1F1F1" height="46.2969" rx="2.5" ry="2.5" style="stroke:#181818;stroke-width:0.5;" width="368" x="642.5" y="406"/><rect fill="#F1F1F1" height="10" style="stroke:#181818;stroke-width:0.5;" width="15" x="990.5" y="411"/><rect fill="#F1F1F1" height="2" style="stroke:#181818;stroke-width:0.5;" width="4" x="988.5" y="413"/><rect fill="#F1F1F1" height="2" style="stroke:#181818;stroke-width:0.5;" width="4" x="988.5" y="417"/><text fill="#000000" font-family="sans-serif" font-size="14" lengthAdjust="spacing" textLength="328" x="657.5" y="438.9951">kieker.examples.monitoring.application.CRM</text></g><!--link _Entry_ to _Entry______--><g id="link__Entry___Entry______"><path d="M1275.5,53.122 C1275.5,81.833 1275.5,124.533 1275.5,143.802 " fill="none" id="_Entry_-to-_Entry______" style="stroke:#181818;stroke-width:1.0;"/><polygon fill="#181818" points="1275.5,149.802,1279.5,140.802,1275.5,144.802,1271.5,140.802,1275.5,149.802" style="stroke:#181818;stroke-width:1.0;"/><text fill="#000000" font-family="sans-serif" font-size="13" lengthAdjust="spacing" textLength="55" x="1276.5" y="96.0669">provides</text></g><!--link kieker.examples.monitoring.application.Main to public_static_main_java.lang.String____void--><g id="link_kieker.examples.monitoring.application.Main_public_static_main_java.lang.String____void"><path d="M1020.9,182.261 C1041.77,212.432 1074.6061,259.9039 1088.4761,279.9499 " fill="none" id="kieker.examples.monitoring.application.Main-to-public_static_main_java.lang.String____void" style="stroke:#181818;stroke-width:1.0;"/><polygon fill="#181818" points="1091.89,284.884,1090.0585,275.2069,1089.0451,280.7723,1083.4797,279.7588,1091.89,284.884" style="stroke:#181818;stroke-width:1.0;"/><text fill="#000000" font-family="sans-serif" font-size="13" lengthAdjust="spacing" textLength="55" x="1058.5" y="231.0669">provides</text></g><!--link kieker.examples.monitoring.application.Bookstore to public_Bookstore__--><g id="link_kieker.examples.monitoring.application.Bookstore_public_Bookstore__"><path d="M585.123,317.261 C571.058,347.432 549.1629,394.3998 539.8189,414.4458 " fill="none" id="kieker.examples.monitoring.application.Bookstore-to-public_Bookstore__" style="stroke:#181818;stroke-width:1.0;"/><polygon fill="#181818" points="537.284,419.884,544.7118,413.4166,539.3964,415.3521,537.4609,410.0367,537.284,419.884" style="stroke:#181818;stroke-width:1.0;"/><text fill="#000000" font-family="sans-serif" font-size="13" lengthAdjust="spacing" textLength="55" x="569.5" y="366.0669">provides</text></g><!--link kieker.examples.monitoring.application.Bookstore to public_searchBook___void--><g id="link_kieker.examples.monitoring.application.Bookstore_public_searchBook___void"><path d="M664.217,317.025 C716.327,333.189 789.925,354.87 855.5,370 C931.112,387.446 951.554,384.069 1027.5,400 C1066.79,408.242 1107.324,418.8289 1126.594,423.9859 " fill="none" id="kieker.examples.monitoring.application.Bookstore-to-public_searchBook___void" style="stroke:#181818;stroke-width:1.0;"/><polygon fill="#181818" points="1132.39,425.537,1124.73,419.3463,1127.56,424.2444,1122.6619,427.0743,1132.39,425.537" style="stroke:#181818;stroke-width:1.0;"/><text fill="#000000" font-family="sans-serif" font-size="13" lengthAdjust="spacing" textLength="55" x="856.5" y="366.0669">provides</text></g><!--link kieker.examples.monitoring.application.Catalog to public_Catalog__--><g id="link_kieker.examples.monitoring.application.Catalog_public_Catalog__"><path d="M223.757,452.261 C252.567,482.432 298.4654,530.4985 317.6064,550.5445 " fill="none" id="kieker.examples.monitoring.application.Catalog-to-public_Catalog__" style="stroke:#181818;stroke-width:1.0;"/><polygon fill="#181818" points="321.75,554.884,318.4276,545.6124,318.297,551.2678,312.6417,551.1372,321.75,554.884" style="stroke:#181818;stroke-width:1.0;"/><text fill="#000000" font-family="sans-serif" font-size="13" lengthAdjust="spacing" textLength="55" x="275.5" y="501.0669">provides</text></g><!--link kieker.examples.monitoring.application.Catalog to public_getBook_boolean__void--><g id="link_kieker.examples.monitoring.application.Catalog_public_getBook_boolean__void"><path d="M192.002,452.126 C177.3,486.745 156.012,553.802 190.5,593 C247.129,657.3625 907.7607,692.8935 993.4567,697.2455 " fill="none" id="kieker.examples.monitoring.application.Catalog-to-public_getBook_boolean__void" style="stroke:#181818;stroke-width:1.0;"/><polygon fill="#181818" points="999.449,697.5498,990.6635,693.0985,994.4554,697.2962,990.2577,701.0882,999.449,697.5498" style="stroke:#181818;stroke-width:1.0;"/><text fill="#000000" font-family="sans-serif" font-size="13" lengthAdjust="spacing" textLength="55" x="191.5" y="568.5669">provides</text></g><!--link kieker.examples.monitoring.application.CRM to public_CRM_kieker.examples.monitoring.application.Catalog_--><g id="link_kieker.examples.monitoring.application.CRM_public_CRM_kieker.examples.monitoring.application.Catalog_"><path d="M798.046,452.261 C758.914,482.876 695.2457,532.688 670.4967,552.05 " fill="none" id="kieker.examples.monitoring.application.CRM-to-public_CRM_kieker.examples.monitoring.application.Catalog_" style="stroke:#181818;stroke-width:1.0;"/><polygon fill="#181818" points="665.771,555.747,675.3242,553.3519,669.709,552.6661,670.3948,547.051,665.771,555.747" style="stroke:#181818;stroke-width:1.0;"/><text fill="#000000" font-family="sans-serif" font-size="13" lengthAdjust="spacing" textLength="55" x="753.5" y="501.0669">provides</text></g><!--link kieker.examples.monitoring.application.CRM to public_getOffers___void--><g id="link_kieker.examples.monitoring.application.CRM_public_getOffers___void"><path d="M856.963,452.261 C899.261,483.172 968.6526,533.8809 994.4846,552.7579 " fill="none" id="kieker.examples.monitoring.application.CRM-to-public_getOffers___void" style="stroke:#181818;stroke-width:1.0;"/><polygon fill="#181818" points="999.329,556.298,994.4225,547.7583,995.292,553.3479,989.7024,554.2175,999.329,556.298" style="stroke:#181818;stroke-width:1.0;"/><text fill="#000000" font-family="sans-serif" font-size="13" lengthAdjust="spacing" textLength="55" x="929.5" y="501.0669">provides</text></g><!--link _Entry______ to public_static_main_java.lang.String____void--><g id="link__Entry_______public_static_main_java.lang.String____void"><path d="M1266.43,166.778 C1235.96,189.54 1142.3263,259.5065 1111.5763,282.4845 " fill="none" id="_Entry______-to-public_static_main_java.lang.String____void" style="stroke:#181818;stroke-width:1.0;"/><polygon fill="#181818" points="1106.77,286.076,1116.3739,283.8929,1110.7753,283.083,1111.5851,277.4845,1106.77,286.076" style="stroke:#181818;stroke-width:1.0;"/><text fill="#000000" font-family="sans-serif" font-size="13" lengthAdjust="spacing" textLength="28" x="1197.5" y="231.0669">calls</text></g><!--link public_static_main_java.lang.String____void to public_Bookstore__--><g id="link_public_static_main_java.lang.String____void_public_Bookstore__"><path d="M1088.41,299.894 C1062.45,313.614 985.422,352.577 916.5,370 C790.018,401.974 752.349,374.025 624.5,400 C593.885,406.22 564.5004,416.4329 548.2724,422.4439 " fill="none" id="public_static_main_java.lang.String____void-to-public_Bookstore__" style="stroke:#181818;stroke-width:1.0;"/><polygon fill="#181818" points="542.646,424.528,552.475,425.1528,547.3347,422.7913,549.6962,417.6509,542.646,424.528" style="stroke:#181818;stroke-width:1.0;"/><text fill="#000000" font-family="sans-serif" font-size="13" lengthAdjust="spacing" textLength="28" x="969.5" y="366.0669">calls</text></g><!--link public_Bookstore__ to public_Catalog__--><g id="link_public_Bookstore___public_Catalog__"><path d="M524.471,435.886 C490.851,457.805 378.1311,531.2941 343.9161,553.6011 " fill="none" id="public_Bookstore__-to-public_Catalog__" style="stroke:#181818;stroke-width:1.0;"/><polygon fill="#181818" points="338.89,556.878,348.6138,555.3135,343.0785,554.1473,344.2446,548.6119,338.89,556.878" style="stroke:#181818;stroke-width:1.0;"/><text fill="#000000" font-family="sans-serif" font-size="13" lengthAdjust="spacing" textLength="28" x="445.5" y="501.0669">calls</text></g><!--link public_Bookstore__ to public_CRM_kieker.examples.monitoring.application.Catalog_--><g id="link_public_Bookstore___public_CRM_kieker.examples.monitoring.application.Catalog_"><path d="M541.194,438.32 C563.283,462.205 622.6491,526.397 644.7351,550.278 " fill="none" id="public_Bookstore__-to-public_CRM_kieker.examples.monitoring.application.Catalog_" style="stroke:#181818;stroke-width:1.0;"/><polygon fill="#181818" points="648.809,554.683,645.6348,545.3597,645.4141,551.0122,639.7616,550.7915,648.809,554.683" style="stroke:#181818;stroke-width:1.0;"/><text fill="#000000" font-family="sans-serif" font-size="13" lengthAdjust="spacing" textLength="28" x="603.5" y="501.0669">calls</text></g><!--link public_static_main_java.lang.String____void to public_searchBook___void--><g id="link_public_static_main_java.lang.String____void_public_searchBook___void"><path d="M1100.25,303.32 C1108.15,327.205 1128.9656,390.1056 1136.8656,413.9866 " fill="none" id="public_static_main_java.lang.String____void-to-public_searchBook___void" style="stroke:#181818;stroke-width:1.0;"/><polygon fill="#181818" points="1138.75,419.683,1139.721,409.8821,1137.1797,414.936,1132.1258,412.3947,1138.75,419.683" style="stroke:#181818;stroke-width:1.0;"/><text fill="#000000" font-family="sans-serif" font-size="13" lengthAdjust="spacing" textLength="28" x="1123.5" y="366.0669">calls</text></g><!--link public_searchBook___void to public_getBook_boolean__void--><g id="link_public_searchBook___void_public_getBook_boolean__void"><path d="M1141.86,438.003 C1142.62,462.647 1142.43,538.981 1114.5,593 C1090.59,639.2498 1043.8434,674.2312 1022.7234,688.576 " fill="none" id="public_searchBook___void-to-public_getBook_boolean__void" style="stroke:#181818;stroke-width:1.0;"/><polygon fill="#181818" points="1017.76,691.9472,1027.4525,690.1994,1021.8962,689.1379,1022.9577,683.5815,1017.76,691.9472" style="stroke:#181818;stroke-width:1.0;"/><text fill="#000000" font-family="sans-serif" font-size="13" lengthAdjust="spacing" textLength="28" x="1135.5" y="568.5669">calls</text></g><!--link public_searchBook___void to public_getOffers___void--><g id="link_public_searchBook___void_public_getOffers___void"><path d="M1133.18,438.32 C1109.3,462.205 1044.9426,526.5593 1021.0626,550.4403 " fill="none" id="public_searchBook___void-to-public_getOffers___void" style="stroke:#181818;stroke-width:1.0;"/><polygon fill="#181818" points="1016.82,554.683,1026.0123,551.1473,1020.3555,551.1474,1020.3553,545.4905,1016.82,554.683" style="stroke:#181818;stroke-width:1.0;"/><text fill="#000000" font-family="sans-serif" font-size="13" lengthAdjust="spacing" textLength="28" x="1084.5" y="501.0669">calls</text></g><!--link public_getOffers___void to public_getBook_boolean__void--><g id="link_public_getOffers___void_public_getBook_boolean__void"><path d="M1008.5,573.32 C1008.5,597.205 1008.5,659.8023 1008.5,683.6834 " fill="none" id="public_getOffers___void-to-public_getBook_boolean__void" style="stroke:#181818;stroke-width:1.0;"/><polygon fill="#181818" points="1008.5,689.6834,1012.5,680.6834,1008.5,684.6834,1004.5,680.6834,1008.5,689.6834" style="stroke:#181818;stroke-width:1.0;"/><text fill="#000000" font-family="sans-serif" font-size="13" lengthAdjust="spacing" textLength="28" x="1009.5" y="636.0669">calls</text></g><!--SRC=[hPN1Zfim48RlFCLeBo7IGkweMgbTxM6bebQqFKKhD861k04RsKvetxw6i1G2syPi8dA8_S_tspF3P0NVzqo1UH2-5iZrZ_0pf0npYQNlhE2PPqAMg9dWO1wz9-12dtydo657a8aZJs5FaWBOQrsfOBEf6jInBFn4b8RoaSDJohIGzuQ06h0eHAr02qWaeQPNHtNVd6ICgklQ7-9wzgRvWkCuZ6kI6IO4TwidhkNlbRiEFZpS0Ig8suMu_Go5rN5Ni0HKSvK4IcJS_Oadz0qxzxzfoNY-VLa79y7IbdFMnsTztEZZItrZqUXdR3u9SL3c-kIkXxH-UVPiZwYn4Fauf5kS3uX2zy3eGDAdNrXM1Ic_5Bp9kpcUZrLbL6tf_0upHaTXR1S-cr52cUoRcxapwUittyvLJhgDtWbH4F8ff1F4dU1Ve2zPHbAviupptkiv7DDPbU34TTz4m_uPRb-Pez3qI8kmq2-mwNl8ngiFMc3OrTx6hWjPOXQ5LaPHQER1jYlQ2tYfgBdtC9e2440bnOcbf9ojHMt-qYncmHAplZWJny6yk2ruybukmNTLdi3xaNLBwEmGM6GGXTCJsq_2MrbV3gOXrncriMVTYOdvsrMEJOptLk-DKCCjRxxkL-aNPVrTbvhh-p5m8l3-tuDMXCjgZu8d-zUw_m40]--></g></svg>