<?xml version="1.0" encoding="windows-1252" standalone="no"?>
<svg xmlns="http://www.w3.org/2000/svg" xmlns:xlink="http://www.w3.org/1999/xlink" contentStyleType="text/css" height="1446px" preserveAspectRatio="none" style="width:2430px;height:1446px;background:#FFFFFF;" version="1.1" viewBox="0 0 2430 1446" width="2430px" zoomAndPan="magnify"><defs/><g><text fill="#000000" font-family="sans-serif" font-size="14" font-weight="bold" lengthAdjust="spacing" textLength="326" x="1050.5" y="27.9951">Use case: SimpleExample - Interaction-0</text><rect fill="#FFFFFF" height="1182.9063" style="stroke:#181818;stroke-width:1.0;" width="10" x="155.5" y="147.1406"/><rect fill="#FFFFFF" height="1081.2422" style="stroke:#181818;stroke-width:1.0;" width="10" x="566.5" y="248.8047"/><rect fill="#FFFFFF" height="387.2578" style="stroke:#181818;stroke-width:1.0;" width="10" x="1097" y="358.4688"/><rect fill="#FFFFFF" height="526.0547" style="stroke:#181818;stroke-width:1.0;" width="10" x="1097" y="774.8594"/><rect fill="#FFFFFF" height="109.6641" style="stroke:#181818;stroke-width:1.0;" width="10" x="1642.5" y="468.1328"/><rect fill="#FFFFFF" height="109.6641" style="stroke:#181818;stroke-width:1.0;" width="10" x="1642.5" y="884.5234"/><rect fill="#FFFFFF" height="109.6641" style="stroke:#181818;stroke-width:1.0;" width="10" x="1642.5" y="1132.9844"/><rect fill="#FFFFFF" height="109.6641" style="stroke:#181818;stroke-width:1.0;" width="10" x="2156" y="606.9297"/><rect fill="#FFFFFF" height="248.4609" style="stroke:#181818;stroke-width:1.0;" width="10" x="2156" y="1023.3203"/><line style="stroke:#181818;stroke-width:0.5;stroke-dasharray:5.0,5.0;" x1="160" x2="160" y1="137.1406" y2="1348.0469"/><line style="stroke:#181818;stroke-width:0.5;stroke-dasharray:5.0,5.0;" x1="571" x2="571" y1="137.1406" y2="1348.0469"/><line style="stroke:#181818;stroke-width:0.5;stroke-dasharray:5.0,5.0;" x1="1102" x2="1102" y1="137.1406" y2="1348.0469"/><line style="stroke:#181818;stroke-width:0.5;stroke-dasharray:5.0,5.0;" x1="1647" x2="1647" y1="137.1406" y2="1348.0469"/><line style="stroke:#181818;stroke-width:0.5;stroke-dasharray:5.0,5.0;" x1="2161" x2="2161" y1="137.1406" y2="1348.0469"/><rect fill="#E2E2F0" height="93.8438" rx="2.5" ry="2.5" style="stroke:#181818;stroke-width:0.5;" width="311" x="5" y="42.2969"/><text fill="#000000" font-family="sans-serif" font-size="18" font-weight="bold" lengthAdjust="spacing" textLength="70" x="125.5" y="66.0049">'Entry'</text><line style="stroke:#181818;stroke-width:1.0;" x1="5" x2="316" y1="75.25" y2="75.25"/><text fill="#000000" font-family="sans-serif" font-size="14" lengthAdjust="spacing" textLength="56" x="132.5" y="93.2451">«Actor»</text><text fill="#000000" font-family="sans-serif" font-size="14" lengthAdjust="spacing" textLength="145" x="88" y="109.542">«GaWorkloadEvent»</text><text fill="#000000" font-family="sans-serif" font-size="14" lengthAdjust="spacing" textLength="297" x="12" y="125.8389">pattern: open:0.00000000079978382986</text><rect fill="#E2E2F0" height="93.8438" rx="2.5" ry="2.5" style="stroke:#181818;stroke-width:0.5;" width="311" x="5" y="1347.0469"/><text fill="#000000" font-family="sans-serif" font-size="18" font-weight="bold" lengthAdjust="spacing" textLength="70" x="125.5" y="1370.7549">'Entry'</text><line style="stroke:#181818;stroke-width:1.0;" x1="5" x2="316" y1="1380" y2="1380"/><text fill="#000000" font-family="sans-serif" font-size="14" lengthAdjust="spacing" textLength="56" x="132.5" y="1397.9951">«Actor»</text><text fill="#000000" font-family="sans-serif" font-size="14" lengthAdjust="spacing" textLength="145" x="88" y="1414.292">«GaWorkloadEvent»</text><text fill="#000000" font-family="sans-serif" font-size="14" lengthAdjust="spacing" textLength="297" x="12" y="1430.5889">pattern: open:0.00000000079978382986</text><rect fill="#E2E2F0" height="61.25" rx="2.5" ry="2.5" style="stroke:#181818;stroke-width:0.5;" width="491" x="326" y="74.8906"/><text fill="#000000" font-family="sans-serif" font-size="18" font-weight="bold" lengthAdjust="spacing" textLength="477" x="333" y="98.5986">kieker.examples.monitoring.application.Main</text><line style="stroke:#181818;stroke-width:1.0;" x1="326" x2="817" y1="107.8438" y2="107.8438"/><text fill="#000000" font-family="sans-serif" font-size="14" lengthAdjust="spacing" textLength="4" x="569.5" y="125.8389"> </text><rect fill="#E2E2F0" height="61.25" rx="2.5" ry="2.5" style="stroke:#181818;stroke-width:0.5;" width="491" x="326" y="1347.0469"/><text fill="#000000" font-family="sans-serif" font-size="18" font-weight="bold" lengthAdjust="spacing" textLength="477" x="333" y="1370.7549">kieker.examples.monitoring.application.Main</text><line style="stroke:#181818;stroke-width:1.0;" x1="326" x2="817" y1="1380" y2="1380"/><text fill="#000000" font-family="sans-serif" font-size="14" lengthAdjust="spacing" textLength="4" x="569.5" y="1397.9951"> </text><rect fill="#E2E2F0" height="61.25" rx="2.5" ry="2.5" style="stroke:#181818;stroke-width:0.5;" width="550" x="827" y="74.8906"/><text fill="#000000" font-family="sans-serif" font-size="18" font-weight="bold" lengthAdjust="spacing" textLength="536" x="834" y="98.5986">kieker.examples.monitoring.application.Bookstore</text><line style="stroke:#181818;stroke-width:1.0;" x1="827" x2="1377" y1="107.8438" y2="107.8438"/><text fill="#000000" font-family="sans-serif" font-size="14" lengthAdjust="spacing" textLength="4" x="1100" y="125.8389"> </text><rect fill="#E2E2F0" height="61.25" rx="2.5" ry="2.5" style="stroke:#181818;stroke-width:0.5;" width="550" x="827" y="1347.0469"/><text fill="#000000" font-family="sans-serif" font-size="18" font-weight="bold" lengthAdjust="spacing" textLength="536" x="834" y="1370.7549">kieker.examples.monitoring.application.Bookstore</text><line style="stroke:#181818;stroke-width:1.0;" x1="827" x2="1377" y1="1380" y2="1380"/><text fill="#000000" font-family="sans-serif" font-size="14" lengthAdjust="spacing" textLength="4" x="1100" y="1397.9951"> </text><rect fill="#E2E2F0" height="61.25" rx="2.5" ry="2.5" style="stroke:#181818;stroke-width:0.5;" width="521" x="1387" y="74.8906"/><text fill="#000000" font-family="sans-serif" font-size="18" font-weight="bold" lengthAdjust="spacing" textLength="507" x="1394" y="98.5986">kieker.examples.monitoring.application.Catalog</text><line style="stroke:#181818;stroke-width:1.0;" x1="1387" x2="1908" y1="107.8438" y2="107.8438"/><text fill="#000000" font-family="sans-serif" font-size="14" lengthAdjust="spacing" textLength="4" x="1645.5" y="125.8389"> </text><rect fill="#E2E2F0" height="61.25" rx="2.5" ry="2.5" style="stroke:#181818;stroke-width:0.5;" width="521" x="1387" y="1347.0469"/><text fill="#000000" font-family="sans-serif" font-size="18" font-weight="bold" lengthAdjust="spacing" textLength="507" x="1394" y="1370.7549">kieker.examples.monitoring.application.Catalog</text><line style="stroke:#181818;stroke-width:1.0;" x1="1387" x2="1908" y1="1380" y2="1380"/><text fill="#000000" font-family="sans-serif" font-size="14" lengthAdjust="spacing" textLength="4" x="1645.5" y="1397.9951"> </text><rect fill="#E2E2F0" height="61.25" rx="2.5" ry="2.5" style="stroke:#181818;stroke-width:0.5;" width="486" x="1918" y="74.8906"/><text fill="#000000" font-family="sans-serif" font-size="18" font-weight="bold" lengthAdjust="spacing" textLength="472" x="1925" y="98.5986">kieker.examples.monitoring.application.CRM</text><line style="stroke:#181818;stroke-width:1.0;" x1="1918" x2="2404" y1="107.8438" y2="107.8438"/><text fill="#000000" font-family="sans-serif" font-size="14" lengthAdjust="spacing" textLength="4" x="2159" y="125.8389"> </text><rect fill="#E2E2F0" height="61.25" rx="2.5" ry="2.5" style="stroke:#181818;stroke-width:0.5;" width="486" x="1918" y="1347.0469"/><text fill="#000000" font-family="sans-serif" font-size="18" font-weight="bold" lengthAdjust="spacing" textLength="472" x="1925" y="1370.7549">kieker.examples.monitoring.application.CRM</text><line style="stroke:#181818;stroke-width:1.0;" x1="1918" x2="2404" y1="1380" y2="1380"/><text fill="#000000" font-family="sans-serif" font-size="14" lengthAdjust="spacing" textLength="4" x="2159" y="1397.9951"> </text><rect fill="#FFFFFF" height="1182.9063" style="stroke:#181818;stroke-width:1.0;" width="10" x="155.5" y="147.1406"/><rect fill="#FFFFFF" height="1081.2422" style="stroke:#181818;stroke-width:1.0;" width="10" x="566.5" y="248.8047"/><rect fill="#FFFFFF" height="387.2578" style="stroke:#181818;stroke-width:1.0;" width="10" x="1097" y="358.4688"/><rect fill="#FFFFFF" height="526.0547" style="stroke:#181818;stroke-width:1.0;" width="10" x="1097" y="774.8594"/><rect fill="#FFFFFF" height="109.6641" style="stroke:#181818;stroke-width:1.0;" width="10" x="1642.5" y="468.1328"/><rect fill="#FFFFFF" height="109.6641" style="stroke:#181818;stroke-width:1.0;" width="10" x="1642.5" y="884.5234"/><rect fill="#FFFFFF" height="109.6641" style="stroke:#181818;stroke-width:1.0;" width="10" x="1642.5" y="1132.9844"/><rect fill="#FFFFFF" height="109.6641" style="stroke:#181818;stroke-width:1.0;" width="10" x="2156" y="606.9297"/><rect fill="#FFFFFF" height="248.4609" style="stroke:#181818;stroke-width:1.0;" width="10" x="2156" y="1023.3203"/><path d="M10,152.1406 L10,222.1406 L311,222.1406 L311,162.1406 L301,152.1406 L10,152.1406 " fill="#FEFFDD" style="stroke:#181818;stroke-width:0.5;"/><path d="M301,152.1406 L301,162.1406 L311,162.1406 L301,152.1406 " fill="#FEFFDD" style="stroke:#181818;stroke-width:0.5;"/><text fill="#000000" font-family="sans-serif" font-size="13" lengthAdjust="spacing" textLength="63" x="16" y="169.2075">«GaStep»</text><text fill="#000000" font-family="sans-serif" font-size="13" lengthAdjust="spacing" textLength="280" x="16" y="184.3403">execTimeEntries: 1.0,1.0,1.0,1.0,1.0,1.0,1.0</text><text fill="#000000" font-family="sans-serif" font-size="13" lengthAdjust="spacing" textLength="92" x="16" y="199.4731">execTime: 1.0</text><text fill="#000000" font-family="sans-serif" font-size="13" lengthAdjust="spacing" textLength="38" x="16" y="214.606">rep: 1</text><polygon fill="#181818" points="554.5,244.8047,564.5,248.8047,554.5,252.8047,558.5,248.8047" style="stroke:#181818;stroke-width:1.0;"/><line style="stroke:#181818;stroke-width:1.0;" x1="165.5" x2="560.5" y1="248.8047" y2="248.8047"/><text fill="#000000" font-family="sans-serif" font-size="13" font-weight="bold" lengthAdjust="spacing" textLength="9" x="172.5" y="243.7388">1</text><text fill="#000000" font-family="sans-serif" font-size="13" lengthAdjust="spacing" textLength="263" x="185.5" y="243.7388">public static main(java.lang.String[]):void</text><path d="M301,261.8047 L301,331.8047 L842,331.8047 L842,271.8047 L832,261.8047 L301,261.8047 " fill="#FEFFDD" style="stroke:#181818;stroke-width:0.5;"/><path d="M832,261.8047 L832,271.8047 L842,271.8047 L832,261.8047 " fill="#FEFFDD" style="stroke:#181818;stroke-width:0.5;"/><text fill="#000000" font-family="sans-serif" font-size="13" lengthAdjust="spacing" textLength="63" x="307" y="278.8716">«GaStep»</text><text fill="#000000" font-family="sans-serif" font-size="13" lengthAdjust="spacing" textLength="520" x="307" y="294.0044">execTimeEntries: 3950700.0,24800.0,31600.0,33500.0,33300.0,24700.0,22000.0</text><text fill="#000000" font-family="sans-serif" font-size="13" lengthAdjust="spacing" textLength="204" x="307" y="309.1372">execTime: 588657.1428571428</text><text fill="#000000" font-family="sans-serif" font-size="13" lengthAdjust="spacing" textLength="38" x="307" y="324.27">rep: 1</text><polygon fill="#181818" points="1085,354.4688,1095,358.4688,1085,362.4688,1089,358.4688" style="stroke:#181818;stroke-width:1.0;"/><line style="stroke:#181818;stroke-width:1.0;" x1="576.5" x2="1091" y1="358.4688" y2="358.4688"/><text fill="#000000" font-family="sans-serif" font-size="13" font-weight="bold" lengthAdjust="spacing" textLength="9" x="583.5" y="353.4028">2</text><text fill="#000000" font-family="sans-serif" font-size="13" lengthAdjust="spacing" textLength="115" x="596.5" y="353.4028">public Bookstore()</text><path d="M831,371.4688 L831,441.4688 L1372,441.4688 L1372,381.4688 L1362,371.4688 L831,371.4688 " fill="#FEFFDD" style="stroke:#181818;stroke-width:0.5;"/><path d="M1362,371.4688 L1362,381.4688 L1372,381.4688 L1362,371.4688 " fill="#FEFFDD" style="stroke:#181818;stroke-width:0.5;"/><text fill="#000000" font-family="sans-serif" font-size="13" lengthAdjust="spacing" textLength="63" x="837" y="388.5356">«GaStep»</text><text fill="#000000" font-family="sans-serif" font-size="13" lengthAdjust="spacing" textLength="520" x="837" y="403.6685">execTimeEntries: 8736800.0,41100.0,63400.0,42300.0,55900.0,43200.0,39900.0</text><text fill="#000000" font-family="sans-serif" font-size="13" lengthAdjust="spacing" textLength="204" x="837" y="418.8013">execTime: 1288942.857142857</text><text fill="#000000" font-family="sans-serif" font-size="13" lengthAdjust="spacing" textLength="38" x="837" y="433.9341">rep: 1</text><polygon fill="#181818" points="1630.5,464.1328,1640.5,468.1328,1630.5,472.1328,1634.5,468.1328" style="stroke:#181818;stroke-width:1.0;"/><line style="stroke:#181818;stroke-width:1.0;" x1="1107" x2="1636.5" y1="468.1328" y2="468.1328"/><text fill="#000000" font-family="sans-serif" font-size="13" font-weight="bold" lengthAdjust="spacing" textLength="8" x="1114" y="463.0669">3</text><text fill="#000000" font-family="sans-serif" font-size="13" lengthAdjust="spacing" textLength="100" x="1126" y="463.0669">public Catalog()</text><path d="M1405,481.1328 L1405,551.1328 L1890,551.1328 L1890,491.1328 L1880,481.1328 L1405,481.1328 " fill="#FEFFDD" style="stroke:#181818;stroke-width:0.5;"/><path d="M1880,481.1328 L1880,491.1328 L1890,491.1328 L1880,481.1328 " fill="#FEFFDD" style="stroke:#181818;stroke-width:0.5;"/><text fill="#000000" font-family="sans-serif" font-size="13" lengthAdjust="spacing" textLength="63" x="1411" y="498.1997">«GaStep»</text><text fill="#000000" font-family="sans-serif" font-size="13" lengthAdjust="spacing" textLength="464" x="1411" y="513.3325">execTimeEntries: 10100.0,5200.0,11000.0,6000.0,7500.0,5800.0,6000.0</text><text fill="#000000" font-family="sans-serif" font-size="13" lengthAdjust="spacing" textLength="204" x="1411" y="528.4653">execTime: 7371.428571428572</text><text fill="#000000" font-family="sans-serif" font-size="13" lengthAdjust="spacing" textLength="38" x="1411" y="543.5981">rep: 1</text><polygon fill="#181818" points="1118,573.7969,1108,577.7969,1118,581.7969,1114,577.7969" style="stroke:#181818;stroke-width:1.0;"/><line style="stroke:#181818;stroke-width:1.0;stroke-dasharray:2.0,2.0;" x1="1112" x2="1646.5" y1="577.7969" y2="577.7969"/><text fill="#000000" font-family="sans-serif" font-size="13" font-weight="bold" lengthAdjust="spacing" textLength="9" x="1124" y="572.731">4</text><text fill="#000000" font-family="sans-serif" font-size="13" lengthAdjust="spacing" textLength="115" x="1137" y="572.731">public Bookstore()</text><polygon fill="#181818" points="2144,602.9297,2154,606.9297,2144,610.9297,2148,606.9297" style="stroke:#181818;stroke-width:1.0;"/><line style="stroke:#181818;stroke-width:1.0;" x1="1107" x2="2150" y1="606.9297" y2="606.9297"/><text fill="#000000" font-family="sans-serif" font-size="13" font-weight="bold" lengthAdjust="spacing" textLength="9" x="1114" y="601.8638">5</text><text fill="#000000" font-family="sans-serif" font-size="13" lengthAdjust="spacing" textLength="383" x="1127" y="601.8638">public CRM(kieker.examples.monitoring.application.Catalog)</text><path d="M1926,619.9297 L1926,689.9297 L2395,689.9297 L2395,629.9297 L2385,619.9297 L1926,619.9297 " fill="#FEFFDD" style="stroke:#181818;stroke-width:0.5;"/><path d="M2385,619.9297 L2385,629.9297 L2395,629.9297 L2385,619.9297 " fill="#FEFFDD" style="stroke:#181818;stroke-width:0.5;"/><text fill="#000000" font-family="sans-serif" font-size="13" lengthAdjust="spacing" textLength="63" x="1932" y="636.9966">«GaStep»</text><text fill="#000000" font-family="sans-serif" font-size="13" lengthAdjust="spacing" textLength="448" x="1932" y="652.1294">execTimeEntries: 8600.0,3000.0,3000.0,3000.0,3600.0,3500.0,2900.0</text><text fill="#000000" font-family="sans-serif" font-size="13" lengthAdjust="spacing" textLength="212" x="1932" y="667.2622">execTime: 3942.8571428571427</text><text fill="#000000" font-family="sans-serif" font-size="13" lengthAdjust="spacing" textLength="38" x="1932" y="682.395">rep: 1</text><polygon fill="#181818" points="1118,712.5938,1108,716.5938,1118,720.5938,1114,716.5938" style="stroke:#181818;stroke-width:1.0;"/><line style="stroke:#181818;stroke-width:1.0;stroke-dasharray:2.0,2.0;" x1="1112" x2="2160" y1="716.5938" y2="716.5938"/><text fill="#000000" font-family="sans-serif" font-size="13" font-weight="bold" lengthAdjust="spacing" textLength="9" x="1124" y="711.5278">6</text><text fill="#000000" font-family="sans-serif" font-size="13" lengthAdjust="spacing" textLength="115" x="1137" y="711.5278">public Bookstore()</text><polygon fill="#181818" points="587.5,741.7266,577.5,745.7266,587.5,749.7266,583.5,745.7266" style="stroke:#181818;stroke-width:1.0;"/><line style="stroke:#181818;stroke-width:1.0;stroke-dasharray:2.0,2.0;" x1="581.5" x2="1101" y1="745.7266" y2="745.7266"/><text fill="#000000" font-family="sans-serif" font-size="13" font-weight="bold" lengthAdjust="spacing" textLength="9" x="593.5" y="740.6606">7</text><text fill="#000000" font-family="sans-serif" font-size="13" lengthAdjust="spacing" textLength="263" x="606.5" y="740.6606">public static main(java.lang.String[]):void</text><polygon fill="#181818" points="1085,770.8594,1095,774.8594,1085,778.8594,1089,774.8594" style="stroke:#181818;stroke-width:1.0;"/><line style="stroke:#181818;stroke-width:1.0;" x1="576.5" x2="1091" y1="774.8594" y2="774.8594"/><text fill="#000000" font-family="sans-serif" font-size="13" font-weight="bold" lengthAdjust="spacing" textLength="9" x="583.5" y="769.7935">8</text><text fill="#000000" font-family="sans-serif" font-size="13" lengthAdjust="spacing" textLength="157" x="596.5" y="769.7935">public searchBook():void</text><path d="M835,787.8594 L835,857.8594 L1368,857.8594 L1368,797.8594 L1358,787.8594 L835,787.8594 " fill="#FEFFDD" style="stroke:#181818;stroke-width:0.5;"/><path d="M1358,787.8594 L1358,797.8594 L1368,797.8594 L1358,787.8594 " fill="#FEFFDD" style="stroke:#181818;stroke-width:0.5;"/><text fill="#000000" font-family="sans-serif" font-size="13" lengthAdjust="spacing" textLength="63" x="841" y="804.9263">«GaStep»</text><text fill="#000000" font-family="sans-serif" font-size="13" lengthAdjust="spacing" textLength="512" x="841" y="820.0591">execTimeEntries: 573600.0,37800.0,53600.0,39500.0,33500.0,33800.0,30500.0</text><text fill="#000000" font-family="sans-serif" font-size="13" lengthAdjust="spacing" textLength="212" x="841" y="835.1919">execTime: 114614.28571428571</text><text fill="#000000" font-family="sans-serif" font-size="13" lengthAdjust="spacing" textLength="38" x="841" y="850.3247">rep: 1</text><polygon fill="#181818" points="1630.5,880.5234,1640.5,884.5234,1630.5,888.5234,1634.5,884.5234" style="stroke:#181818;stroke-width:1.0;"/><line style="stroke:#181818;stroke-width:1.0;" x1="1107" x2="1636.5" y1="884.5234" y2="884.5234"/><text fill="#000000" font-family="sans-serif" font-size="13" font-weight="bold" lengthAdjust="spacing" textLength="9" x="1114" y="879.4575">9</text><text fill="#000000" font-family="sans-serif" font-size="13" lengthAdjust="spacing" textLength="186" x="1127" y="879.4575">public getBook(boolean):void</text><path d="M1329,897.5234 L1329,967.5234 L1966,967.5234 L1966,907.5234 L1956,897.5234 L1329,897.5234 " fill="#FEFFDD" style="stroke:#181818;stroke-width:0.5;"/><path d="M1956,897.5234 L1956,907.5234 L1966,907.5234 L1956,897.5234 " fill="#FEFFDD" style="stroke:#181818;stroke-width:0.5;"/><text fill="#000000" font-family="sans-serif" font-size="13" lengthAdjust="spacing" textLength="63" x="1335" y="914.5903">«GaStep»</text><text fill="#000000" font-family="sans-serif" font-size="13" lengthAdjust="spacing" textLength="616" x="1335" y="929.7231">execTimeEntries: 2077700.0,1621600.0,1903300.0,2183500.0,1398600.0,1628100.0,2307400.0</text><text fill="#000000" font-family="sans-serif" font-size="13" lengthAdjust="spacing" textLength="212" x="1335" y="944.856">execTime: 1874314.2857142857</text><text fill="#000000" font-family="sans-serif" font-size="13" lengthAdjust="spacing" textLength="38" x="1335" y="959.9888">rep: 1</text><polygon fill="#181818" points="1118,990.1875,1108,994.1875,1118,998.1875,1114,994.1875" style="stroke:#181818;stroke-width:1.0;"/><line style="stroke:#181818;stroke-width:1.0;stroke-dasharray:2.0,2.0;" x1="1112" x2="1646.5" y1="994.1875" y2="994.1875"/><text fill="#000000" font-family="sans-serif" font-size="13" font-weight="bold" lengthAdjust="spacing" textLength="19" x="1124" y="989.1216">10</text><text fill="#000000" font-family="sans-serif" font-size="13" lengthAdjust="spacing" textLength="157" x="1147" y="989.1216">public searchBook():void</text><polygon fill="#181818" points="2144,1019.3203,2154,1023.3203,2144,1027.3203,2148,1023.3203" style="stroke:#181818;stroke-width:1.0;"/><line style="stroke:#181818;stroke-width:1.0;" x1="1107" x2="2150" y1="1023.3203" y2="1023.3203"/><text fill="#000000" font-family="sans-serif" font-size="13" font-weight="bold" lengthAdjust="spacing" textLength="18" x="1114" y="1018.2544">11</text><text fill="#000000" font-family="sans-serif" font-size="13" lengthAdjust="spacing" textLength="144" x="1136" y="1018.2544">public getOffers():void</text><path d="M1898,1036.3203 L1898,1106.3203 L2423,1106.3203 L2423,1046.3203 L2413,1036.3203 L1898,1036.3203 " fill="#FEFFDD" style="stroke:#181818;stroke-width:0.5;"/><path d="M2413,1036.3203 L2413,1046.3203 L2423,1046.3203 L2413,1036.3203 " fill="#FEFFDD" style="stroke:#181818;stroke-width:0.5;"/><text fill="#000000" font-family="sans-serif" font-size="13" lengthAdjust="spacing" textLength="63" x="1904" y="1053.3872">«GaStep»</text><text fill="#000000" font-family="sans-serif" font-size="13" lengthAdjust="spacing" textLength="504" x="1904" y="1068.52">execTimeEntries: 30800.0,28600.0,27900.0,25200.0,41500.0,20200.0,21800.0</text><text fill="#000000" font-family="sans-serif" font-size="13" lengthAdjust="spacing" textLength="124" x="1904" y="1083.6528">execTime: 28000.0</text><text fill="#000000" font-family="sans-serif" font-size="13" lengthAdjust="spacing" textLength="38" x="1904" y="1098.7856">rep: 1</text><polygon fill="#181818" points="1663.5,1128.9844,1653.5,1132.9844,1663.5,1136.9844,1659.5,1132.9844" style="stroke:#181818;stroke-width:1.0;"/><line style="stroke:#181818;stroke-width:1.0;" x1="1657.5" x2="2155" y1="1132.9844" y2="1132.9844"/><text fill="#000000" font-family="sans-serif" font-size="13" font-weight="bold" lengthAdjust="spacing" textLength="18" x="1669.5" y="1127.9185">12</text><text fill="#000000" font-family="sans-serif" font-size="13" lengthAdjust="spacing" textLength="186" x="1691.5" y="1127.9185">public getBook(boolean):void</text><path d="M1329,1145.9844 L1329,1215.9844 L1966,1215.9844 L1966,1155.9844 L1956,1145.9844 L1329,1145.9844 " fill="#FEFFDD" style="stroke:#181818;stroke-width:0.5;"/><path d="M1956,1145.9844 L1956,1155.9844 L1966,1155.9844 L1956,1145.9844 " fill="#FEFFDD" style="stroke:#181818;stroke-width:0.5;"/><text fill="#000000" font-family="sans-serif" font-size="13" lengthAdjust="spacing" textLength="63" x="1335" y="1163.0513">«GaStep»</text><text fill="#000000" font-family="sans-serif" font-size="13" lengthAdjust="spacing" textLength="616" x="1335" y="1178.1841">execTimeEntries: 1963000.0,2487300.0,2460300.0,2832000.0,2978500.0,2710000.0,1967500.0</text><text fill="#000000" font-family="sans-serif" font-size="13" lengthAdjust="spacing" textLength="204" x="1335" y="1193.3169">execTime: 2485514.285714286</text><text fill="#000000" font-family="sans-serif" font-size="13" lengthAdjust="spacing" textLength="38" x="1335" y="1208.4497">rep: 1</text><polygon fill="#181818" points="2144,1238.6484,2154,1242.6484,2144,1246.6484,2148,1242.6484" style="stroke:#181818;stroke-width:1.0;"/><line style="stroke:#181818;stroke-width:1.0;stroke-dasharray:2.0,2.0;" x1="1647.5" x2="2150" y1="1242.6484" y2="1242.6484"/><text fill="#000000" font-family="sans-serif" font-size="13" font-weight="bold" lengthAdjust="spacing" textLength="17" x="1654.5" y="1237.5825">13</text><text fill="#000000" font-family="sans-serif" font-size="13" lengthAdjust="spacing" textLength="144" x="1675.5" y="1237.5825">public getOffers():void</text><polygon fill="#181818" points="1118,1267.7813,1108,1271.7813,1118,1275.7813,1114,1271.7813" style="stroke:#181818;stroke-width:1.0;"/><line style="stroke:#181818;stroke-width:1.0;stroke-dasharray:2.0,2.0;" x1="1112" x2="2160" y1="1271.7813" y2="1271.7813"/><text fill="#000000" font-family="sans-serif" font-size="13" font-weight="bold" lengthAdjust="spacing" textLength="18" x="1124" y="1266.7153">14</text><text fill="#000000" font-family="sans-serif" font-size="13" lengthAdjust="spacing" textLength="157" x="1146" y="1266.7153">public searchBook():void</text><polygon fill="#181818" points="587.5,1296.9141,577.5,1300.9141,587.5,1304.9141,583.5,1300.9141" style="stroke:#181818;stroke-width:1.0;"/><line style="stroke:#181818;stroke-width:1.0;stroke-dasharray:2.0,2.0;" x1="581.5" x2="1101" y1="1300.9141" y2="1300.9141"/><text fill="#000000" font-family="sans-serif" font-size="13" font-weight="bold" lengthAdjust="spacing" textLength="18" x="593.5" y="1295.8481">15</text><text fill="#000000" font-family="sans-serif" font-size="13" lengthAdjust="spacing" textLength="263" x="615.5" y="1295.8481">public static main(java.lang.String[]):void</text><polygon fill="#181818" points="171.5,1326.0469,161.5,1330.0469,171.5,1334.0469,167.5,1330.0469" style="stroke:#181818;stroke-width:1.0;"/><line style="stroke:#181818;stroke-width:1.0;stroke-dasharray:2.0,2.0;" x1="165.5" x2="570.5" y1="1330.0469" y2="1330.0469"/><text fill="#000000" font-family="sans-serif" font-size="13" font-weight="bold" lengthAdjust="spacing" textLength="18" x="177.5" y="1324.981">16</text><text fill="#000000" font-family="sans-serif" font-size="13" lengthAdjust="spacing" textLength="75" x="199.5" y="1324.981">'Entry'():&lt;&gt;</text><!--SRC=[vLXRRvim57xdL_YjhTHGC1YRg8kqJTKqQT6cNhI7ggfSuYIiW14uQVVlPsD3aYvRuoJTLWqbEBRnyV5tldC91-1ocjP0VYZuaj52N0q_WL5A9nNDNUS0V2p6lCgfI7a1v4TC6IYuqFs45k2EWJ6V5ICmPHNhWwaGPTq_EIcLg5cUkGdFfPIt1JWRfO9Nnr825O1c6N-eWU0WgHWLhDsnFbQQh8fwU7XmbyLria_K5pYEI4N6722lgvf9fMgv-2BDouoTFLBLW9uyXc0LJPJQFSzXKb-zoYbf9T8aBQL8S7jMYEhxBRXkXBqvQBe7JQSdh-R7wIbucyY3WC6WxN-WNtbrdt4wEfipASRCb5J8FOi-u2Kh-fxhjHUEOqm20cCIEJTWHOFxbDspocLQxzhDUQ5GIuk9IyioIvC6U7T8qwBLqcB9uYHRxlkEy_jQZZFBpRjrEslmdWgQyOdb_cRLxhkV3srtFX-kxkhGcU35BBzZbQFuE5ViDyHpf6SnmEUiwaOwYbq8LhRCOeyikKnpffv9MTq7lkiT_-Axig1viXcfM2axZIEeJHt7QSdV6rYni0_AsPqS0hKA2Wd8vU3XDpgdhlJIYNiXrBBhcwF-dAUZfGFQqlPv488OUTYJVdOCGzAqWH_fDa2c3SoyUGvwgdq24I8aGjZrGqWGLlUrW7Msipc83R2Rss7XbPqnkg738tlCLxtrUU093Y8DUEZxJHi5eUv33JX2iUu7K1iYZjS0xqD2uX2w1dQ4zmByuZJMS6vkWZOiTGOm0zl0lnoiDd1zJqEEDBBA08q5T8CryH5P6do2EWwmxtPSHnZk1VNs49RuzVR6-X5xOPMteedC7mkAd0yFxLJRXamc_spWnIPMUkiQCwVP1DSvRx3YkVA-7-zL-bk0-rVvixcgIznvqNHhVmZhQBbxhgePhPAfcZZSjagmpLW8jup6EZAYjX-Z9nM3gIGyj2vX-M7aX-uYTlglE6DDc6XiSCTvncYnhIdiiXVqCDQrc1z1KwtviTVMQJunTl23sCGd-HpH6K_M5ZXSPnM2ms35BAyte_ti6_z-NfD4-ZmUiwhUsfqtJrg1f_qJ6dP0h0jDQCgXq3SfouCjezOm1f95OVId4zOhSrW_ZanD8FzauVRlLEIPNoI0PZR6n42FLKcg7Jl2wyAeb8JGaiD6hyHVVy_w5tVKtUkTlKIN_xZgaQTetvhqWNbRA94y7MoXGlD-O6cP4Vm3]--></g></svg>