<?xml version="1.0" encoding="windows-1252" standalone="no"?>
<svg xmlns="http://www.w3.org/2000/svg" xmlns:xlink="http://www.w3.org/1999/xlink" contentStyleType="text/css" height="314px" preserveAspectRatio="none" style="width:1657px;height:314px;background:#FFFFFF;" version="1.1" viewBox="0 0 1657 314" width="1657px" zoomAndPan="magnify"><defs/><g><!--entity Zenbook_Flip_14--><g id="elem_Zenbook_Flip_14"><polygon fill="#F1F1F1" points="693,16,703,6,853,6,853,58.5938,843,68.5938,693,68.5938,693,16" style="stroke:#181818;stroke-width:0.5;"/><line style="stroke:#181818;stroke-width:0.5;" x1="843" x2="853" y1="16" y2="6"/><line style="stroke:#181818;stroke-width:0.5;" x1="693" x2="843" y1="16" y2="16"/><line style="stroke:#181818;stroke-width:0.5;" x1="843" x2="843" y1="16" y2="68.5938"/><text fill="#000000" font-family="sans-serif" font-size="14" lengthAdjust="spacing" textLength="120" x="708" y="38.9951">Zenbook-Flip-14</text><text fill="#000000" font-family="sans-serif" font-size="14" lengthAdjust="spacing" textLength="102" x="708" y="55.292">«GaExecHost»</text></g><!--entity _4--><g id="elem__4"><rect fill="#F1F1F1" height="39.2969" rx="2.5" ry="2.5" style="stroke:#181818;stroke-width:0.5;" width="52" x="1344" y="146"/><polygon fill="#F1F1F1" points="1379,151,1379,165,1391,165,1391,157,1385,151,1379,151" style="stroke:#181818;stroke-width:0.5;"/><line style="stroke:#181818;stroke-width:0.5;" x1="1385" x2="1385" y1="151" y2="157"/><line style="stroke:#181818;stroke-width:0.5;" x1="1391" x2="1385" y1="157" y2="157"/><text fill="#000000" font-family="sans-serif" font-size="14" lengthAdjust="spacing" textLength="22" x="1354" y="171.9951">@4</text></g><!--entity _3--><g id="elem__3"><rect fill="#F1F1F1" height="39.2969" rx="2.5" ry="2.5" style="stroke:#181818;stroke-width:0.5;" width="53" x="976.5" y="146"/><polygon fill="#F1F1F1" points="1012.5,151,1012.5,165,1024.5,165,1024.5,157,1018.5,151,1012.5,151" style="stroke:#181818;stroke-width:0.5;"/><line style="stroke:#181818;stroke-width:0.5;" x1="1018.5" x2="1018.5" y1="151" y2="157"/><line style="stroke:#181818;stroke-width:0.5;" x1="1024.5" x2="1018.5" y1="157" y2="157"/><text fill="#000000" font-family="sans-serif" font-size="14" lengthAdjust="spacing" textLength="23" x="986.5" y="171.9951">@3</text></g><!--entity _1--><g id="elem__1"><rect fill="#F1F1F1" height="39.2969" rx="2.5" ry="2.5" style="stroke:#181818;stroke-width:0.5;" width="53" x="655.5" y="146"/><polygon fill="#F1F1F1" points="691.5,151,691.5,165,703.5,165,703.5,157,697.5,151,691.5,151" style="stroke:#181818;stroke-width:0.5;"/><line style="stroke:#181818;stroke-width:0.5;" x1="697.5" x2="697.5" y1="151" y2="157"/><line style="stroke:#181818;stroke-width:0.5;" x1="703.5" x2="697.5" y1="157" y2="157"/><text fill="#000000" font-family="sans-serif" font-size="14" lengthAdjust="spacing" textLength="23" x="665.5" y="171.9951">@1</text></g><!--entity _2--><g id="elem__2"><rect fill="#F1F1F1" height="39.2969" rx="2.5" ry="2.5" style="stroke:#181818;stroke-width:0.5;" width="52" x="263" y="146"/><polygon fill="#F1F1F1" points="298,151,298,165,310,165,310,157,304,151,298,151" style="stroke:#181818;stroke-width:0.5;"/><line style="stroke:#181818;stroke-width:0.5;" x1="304" x2="304" y1="151" y2="157"/><line style="stroke:#181818;stroke-width:0.5;" x1="310" x2="304" y1="157" y2="157"/><text fill="#000000" font-family="sans-serif" font-size="14" lengthAdjust="spacing" textLength="22" x="273" y="171.9951">@2</text></g><!--entity kieker.examples.monitoring.application.Main--><g id="elem_kieker.examples.monitoring.application.Main"><rect fill="#F1F1F1" height="46.2969" rx="2.5" ry="2.5" style="stroke:#181818;stroke-width:0.5;" width="369" x="1282.5" y="262"/><rect fill="#F1F1F1" height="10" style="stroke:#181818;stroke-width:0.5;" width="15" x="1631.5" y="267"/><rect fill="#F1F1F1" height="2" style="stroke:#181818;stroke-width:0.5;" width="4" x="1629.5" y="269"/><rect fill="#F1F1F1" height="2" style="stroke:#181818;stroke-width:0.5;" width="4" x="1629.5" y="273"/><text fill="#000000" font-family="sans-serif" font-size="14" lengthAdjust="spacing" textLength="329" x="1297.5" y="294.9951">kieker.examples.monitoring.application.Main</text></g><!--entity kieker.examples.monitoring.application.Bookstore--><g id="elem_kieker.examples.monitoring.application.Bookstore"><rect fill="#F1F1F1" height="46.2969" rx="2.5" ry="2.5" style="stroke:#181818;stroke-width:0.5;" width="411" x="836.5" y="262"/><rect fill="#F1F1F1" height="10" style="stroke:#181818;stroke-width:0.5;" width="15" x="1227.5" y="267"/><rect fill="#F1F1F1" height="2" style="stroke:#181818;stroke-width:0.5;" width="4" x="1225.5" y="269"/><rect fill="#F1F1F1" height="2" style="stroke:#181818;stroke-width:0.5;" width="4" x="1225.5" y="273"/><text fill="#000000" font-family="sans-serif" font-size="14" lengthAdjust="spacing" textLength="371" x="851.5" y="294.9951">kieker.examples.monitoring.application.Bookstore</text></g><!--entity kieker.examples.monitoring.application.Catalog--><g id="elem_kieker.examples.monitoring.application.Catalog"><rect fill="#F1F1F1" height="46.2969" rx="2.5" ry="2.5" style="stroke:#181818;stroke-width:0.5;" width="391" x="410.5" y="262"/><rect fill="#F1F1F1" height="10" style="stroke:#181818;stroke-width:0.5;" width="15" x="781.5" y="267"/><rect fill="#F1F1F1" height="2" style="stroke:#181818;stroke-width:0.5;" width="4" x="779.5" y="269"/><rect fill="#F1F1F1" height="2" style="stroke:#181818;stroke-width:0.5;" width="4" x="779.5" y="273"/><text fill="#000000" font-family="sans-serif" font-size="14" lengthAdjust="spacing" textLength="351" x="425.5" y="294.9951">kieker.examples.monitoring.application.Catalog</text></g><!--entity kieker.examples.monitoring.application.CRM--><g id="elem_kieker.examples.monitoring.application.CRM"><rect fill="#F1F1F1" height="46.2969" rx="2.5" ry="2.5" style="stroke:#181818;stroke-width:0.5;" width="368" x="7" y="262"/><rect fill="#F1F1F1" height="10" style="stroke:#181818;stroke-width:0.5;" width="15" x="355" y="267"/><rect fill="#F1F1F1" height="2" style="stroke:#181818;stroke-width:0.5;" width="4" x="353" y="269"/><rect fill="#F1F1F1" height="2" style="stroke:#181818;stroke-width:0.5;" width="4" x="353" y="273"/><text fill="#000000" font-family="sans-serif" font-size="14" lengthAdjust="spacing" textLength="328" x="22" y="294.9951">kieker.examples.monitoring.application.CRM</text></g><!--reverse link Zenbook_Flip_14 to _4--><g id="link_Zenbook_Flip_14__4"><path d="M859.0747,56.667 C995.1797,85.392 1259,141.072 1343.82,158.975 " fill="none" id="Zenbook_Flip_14-backto-_4" style="stroke:#181818;stroke-width:1.0;"/><polygon fill="#181818" points="853.204,55.428,861.184,61.2003,858.0962,56.4605,862.836,53.3727,853.204,55.428" style="stroke:#181818;stroke-width:1.0;"/><text fill="#000000" font-family="sans-serif" font-size="13" lengthAdjust="spacing" textLength="74" x="1126" y="112.0669">deployed in</text></g><!--reverse link Zenbook_Flip_14 to _3--><g id="link_Zenbook_Flip_14__3"><path d="M833.9391,71.8838 C880.7361,97.5208 940.32,130.162 976.279,149.861 " fill="none" id="Zenbook_Flip_14-backto-_3" style="stroke:#181818;stroke-width:1.0;"/><polygon fill="#181818" points="828.677,69.001,834.6483,76.8332,833.0621,71.4033,838.492,69.8171,828.677,69.001" style="stroke:#181818;stroke-width:1.0;"/><text fill="#000000" font-family="sans-serif" font-size="13" lengthAdjust="spacing" textLength="74" x="910" y="112.0669">deployed in</text></g><!--reverse link Zenbook_Flip_14 to _1--><g id="link_Zenbook_Flip_14__1"><path d="M747.4581,73.8651 C730.1001,97.9001 709.979,125.76 695.369,145.989 " fill="none" id="Zenbook_Flip_14-backto-_1" style="stroke:#181818;stroke-width:1.0;"/><polygon fill="#181818" points="750.971,69.001,742.459,73.9553,748.0436,73.0544,748.9445,78.6391,750.971,69.001" style="stroke:#181818;stroke-width:1.0;"/><text fill="#000000" font-family="sans-serif" font-size="13" lengthAdjust="spacing" textLength="74" x="729" y="112.0669">deployed in</text></g><!--reverse link Zenbook_Flip_14 to _2--><g id="link_Zenbook_Flip_14__2"><path d="M686.9995,60.8886 C575.6435,89.8776 385.739,139.316 315.239,157.669 " fill="none" id="Zenbook_Flip_14-backto-_2" style="stroke:#181818;stroke-width:1.0;"/><polygon fill="#181818" points="692.806,59.377,683.0886,57.7734,687.9673,60.6367,685.104,65.5154,692.806,59.377" style="stroke:#181818;stroke-width:1.0;"/><text fill="#000000" font-family="sans-serif" font-size="13" lengthAdjust="spacing" textLength="74" x="532" y="112.0669">deployed in</text></g><!--reverse link _4 to kieker.examples.monitoring.application.Main--><g id="link__4_kieker.examples.monitoring.application.Main"><path d="M1389.1895,189.7452 C1406.3895,210.5822 1430.42,239.6931 1448.73,261.8636 " fill="none" id="_4-backto-kieker.examples.monitoring.application.Main" style="stroke:#181818;stroke-width:1.0;"/><polygon fill="#181818" points="1385.37,185.118,1388.0145,194.6052,1388.553,188.974,1394.1841,189.5124,1385.37,185.118" style="stroke:#181818;stroke-width:1.0;"/><text fill="#000000" font-family="sans-serif" font-size="13" lengthAdjust="spacing" textLength="88" x="1423" y="228.0669">manifested in</text></g><!--reverse link _3 to kieker.examples.monitoring.application.Bookstore--><g id="link__3_kieker.examples.monitoring.application.Bookstore"><path d="M1011.0711,190.8122 C1017.9911,211.6492 1027.29,239.6931 1034.65,261.8636 " fill="none" id="_3-backto-kieker.examples.monitoring.application.Bookstore" style="stroke:#181818;stroke-width:1.0;"/><polygon fill="#181818" points="1009.18,185.118,1008.2204,194.92,1010.7559,189.8632,1015.8127,192.3986,1009.18,185.118" style="stroke:#181818;stroke-width:1.0;"/><text fill="#000000" font-family="sans-serif" font-size="13" lengthAdjust="spacing" textLength="88" x="1025" y="228.0669">manifested in</text></g><!--reverse link _1 to kieker.examples.monitoring.application.Catalog--><g id="link__1_kieker.examples.monitoring.application.Catalog"><path d="M666.6993,190.1559 C653.2213,210.9929 634.658,239.6931 620.318,261.8636 " fill="none" id="_1-backto-kieker.examples.monitoring.application.Catalog" style="stroke:#181818;stroke-width:1.0;"/><polygon fill="#181818" points="669.958,185.118,661.7113,190.5025,667.2424,189.3163,668.4286,194.8474,669.958,185.118" style="stroke:#181818;stroke-width:1.0;"/><text fill="#000000" font-family="sans-serif" font-size="13" lengthAdjust="spacing" textLength="88" x="650" y="228.0669">manifested in</text></g><!--reverse link _2 to kieker.examples.monitoring.application.CRM--><g id="link__2_kieker.examples.monitoring.application.CRM"><path d="M269.629,189.7257 C252.25,210.5627 227.954,239.6931 209.463,261.8636 " fill="none" id="_2-backto-kieker.examples.monitoring.application.CRM" style="stroke:#181818;stroke-width:1.0;"/><polygon fill="#181818" points="273.472,185.118,264.6356,189.4675,270.2695,188.9578,270.7792,194.5916,273.472,185.118" style="stroke:#181818;stroke-width:1.0;"/><text fill="#000000" font-family="sans-serif" font-size="13" lengthAdjust="spacing" textLength="88" x="247" y="228.0669">manifested in</text></g><!--SRC=[dPBBQiCm44Nt-eeXcsnY1pzM8OG-I1zGGmdjfgMOYJs9HMH9M0fE_xvo78UqtSGsyaA7qRbYD6DuAxW1jn1U1Khxdhn0pd5ROUcpCJpBZQfAj5n9SCiM15BPTf-XX3N1Hkrb3WLLD8F2McrcqwbkLFjI-9agdULMmZBdLbKJPq0BA8Ig3LW5MKLegKiqa-OclrLrNVkNkhDxslp0t2TLJW0V9DTAxT87mNKQnF390CxKQwWNn4SsdyCZBW-KFIbZOR5WNunXPVa6CmkZctW4Q22DBrdKikYI1IqBBbdOif0nTrMj94b7TvnsLFbqm58BCdwfPDCCBhS-QYruTkoddo2Nn-CzwWV4tBbs6CUfJzRvq830UxGerBPFtEd8aB1LqYjebRW1IcFmzjfR_9kX6UIaXVgc75olq-Ywik2wil2gCjPZ6ax2j76KAFc6Z6qjVP-vCqL3JQSNx3p1OCygwHpXNySF]--></g></svg>