<?xml version="1.0" encoding="windows-1252" standalone="no"?>
<svg xmlns="http://www.w3.org/2000/svg" xmlns:xlink="http://www.w3.org/1999/xlink" contentStyleType="text/css" height="330px" preserveAspectRatio="none" style="width:1456px;height:330px;background:#FFFFFF;" version="1.1" viewBox="0 0 1456 330" width="1456px" zoomAndPan="magnify"><defs/><g><!--entity Zenbook_Flip_14--><g id="elem_Zenbook_Flip_14"><polygon fill="#F1F1F1" points="760.5,24,770.5,14,920.5,14,920.5,66.5938,910.5,76.5938,760.5,76.5938,760.5,24" style="stroke:#181818;stroke-width:0.5;"/><line style="stroke:#181818;stroke-width:0.5;" x1="910.5" x2="920.5" y1="24" y2="14"/><line style="stroke:#181818;stroke-width:0.5;" x1="760.5" x2="910.5" y1="24" y2="24"/><line style="stroke:#181818;stroke-width:0.5;" x1="910.5" x2="910.5" y1="24" y2="76.5938"/><text fill="#000000" font-family="sans-serif" font-size="14" lengthAdjust="spacing" textLength="120" x="775.5" y="46.9951">Zenbook-Flip-14</text><text fill="#000000" font-family="sans-serif" font-size="14" lengthAdjust="spacing" textLength="102" x="775.5" y="63.292">«GaExecHost»</text></g><!--entity CrmNode--><g id="elem_CrmNode"><polygon fill="#F1F1F1" points="32.5,16,42.5,6,174.5,6,174.5,74.8906,164.5,84.8906,32.5,84.8906,32.5,16" style="stroke:#181818;stroke-width:0.5;"/><line style="stroke:#181818;stroke-width:0.5;" x1="164.5" x2="174.5" y1="16" y2="6"/><line style="stroke:#181818;stroke-width:0.5;" x1="32.5" x2="164.5" y1="16" y2="16"/><line style="stroke:#181818;stroke-width:0.5;" x1="164.5" x2="164.5" y1="16" y2="84.8906"/><text fill="#000000" font-family="sans-serif" font-size="14" lengthAdjust="spacing" textLength="67" x="47.5" y="38.9951">CrmNode</text><text fill="#000000" font-family="sans-serif" font-size="14" lengthAdjust="spacing" textLength="102" x="47.5" y="55.292">«GaExecHost»</text><text fill="#000000" font-family="sans-serif" font-size="14" lengthAdjust="spacing" textLength="71" x="47.5" y="71.5889">resMult: 1</text></g><!--entity _4--><g id="elem__4"><rect fill="#F1F1F1" height="39.2969" rx="2.5" ry="2.5" style="stroke:#181818;stroke-width:0.5;" width="52" x="1161.5" y="162"/><polygon fill="#F1F1F1" points="1196.5,167,1196.5,181,1208.5,181,1208.5,173,1202.5,167,1196.5,167" style="stroke:#181818;stroke-width:0.5;"/><line style="stroke:#181818;stroke-width:0.5;" x1="1202.5" x2="1202.5" y1="167" y2="173"/><line style="stroke:#181818;stroke-width:0.5;" x1="1208.5" x2="1202.5" y1="173" y2="173"/><text fill="#000000" font-family="sans-serif" font-size="14" lengthAdjust="spacing" textLength="22" x="1171.5" y="187.9951">@4</text></g><!--entity _3--><g id="elem__3"><rect fill="#F1F1F1" height="39.2969" rx="2.5" ry="2.5" style="stroke:#181818;stroke-width:0.5;" width="53" x="814" y="162"/><polygon fill="#F1F1F1" points="850,167,850,181,862,181,862,173,856,167,850,167" style="stroke:#181818;stroke-width:0.5;"/><line style="stroke:#181818;stroke-width:0.5;" x1="856" x2="856" y1="167" y2="173"/><line style="stroke:#181818;stroke-width:0.5;" x1="862" x2="856" y1="173" y2="173"/><text fill="#000000" font-family="sans-serif" font-size="14" lengthAdjust="spacing" textLength="23" x="824" y="187.9951">@3</text></g><!--entity _1--><g id="elem__1"><rect fill="#F1F1F1" height="39.2969" rx="2.5" ry="2.5" style="stroke:#181818;stroke-width:0.5;" width="53" x="458" y="162"/><polygon fill="#F1F1F1" points="494,167,494,181,506,181,506,173,500,167,494,167" style="stroke:#181818;stroke-width:0.5;"/><line style="stroke:#181818;stroke-width:0.5;" x1="500" x2="500" y1="167" y2="173"/><line style="stroke:#181818;stroke-width:0.5;" x1="506" x2="500" y1="173" y2="173"/><text fill="#000000" font-family="sans-serif" font-size="14" lengthAdjust="spacing" textLength="23" x="468" y="187.9951">@1</text></g><!--entity CrmWithREST_created--><g id="elem_CrmWithREST_created"><rect fill="#F1F1F1" height="39.2969" rx="2.5" ry="2.5" style="stroke:#181818;stroke-width:0.5;" width="193" x="7" y="162"/><polygon fill="#F1F1F1" points="183,167,183,181,195,181,195,173,189,167,183,167" style="stroke:#181818;stroke-width:0.5;"/><line style="stroke:#181818;stroke-width:0.5;" x1="189" x2="189" y1="167" y2="173"/><line style="stroke:#181818;stroke-width:0.5;" x1="195" x2="189" y1="173" y2="173"/><text fill="#000000" font-family="sans-serif" font-size="14" lengthAdjust="spacing" textLength="163" x="17" y="187.9951">CrmWithREST-created</text></g><!--entity kieker.examples.monitoring.application.Main--><g id="elem_kieker.examples.monitoring.application.Main"><rect fill="#F1F1F1" height="46.2969" rx="2.5" ry="2.5" style="stroke:#181818;stroke-width:0.5;" width="369" x="1081" y="278"/><rect fill="#F1F1F1" height="10" style="stroke:#181818;stroke-width:0.5;" width="15" x="1430" y="283"/><rect fill="#F1F1F1" height="2" style="stroke:#181818;stroke-width:0.5;" width="4" x="1428" y="285"/><rect fill="#F1F1F1" height="2" style="stroke:#181818;stroke-width:0.5;" width="4" x="1428" y="289"/><text fill="#000000" font-family="sans-serif" font-size="14" lengthAdjust="spacing" textLength="329" x="1096" y="310.9951">kieker.examples.monitoring.application.Main</text></g><!--entity kieker.examples.monitoring.application.Bookstore--><g id="elem_kieker.examples.monitoring.application.Bookstore"><rect fill="#F1F1F1" height="46.2969" rx="2.5" ry="2.5" style="stroke:#181818;stroke-width:0.5;" width="411" x="635" y="278"/><rect fill="#F1F1F1" height="10" style="stroke:#181818;stroke-width:0.5;" width="15" x="1026" y="283"/><rect fill="#F1F1F1" height="2" style="stroke:#181818;stroke-width:0.5;" width="4" x="1024" y="285"/><rect fill="#F1F1F1" height="2" style="stroke:#181818;stroke-width:0.5;" width="4" x="1024" y="289"/><text fill="#000000" font-family="sans-serif" font-size="14" lengthAdjust="spacing" textLength="371" x="650" y="310.9951">kieker.examples.monitoring.application.Bookstore</text></g><!--entity kieker.examples.monitoring.application.Catalog--><g id="elem_kieker.examples.monitoring.application.Catalog"><rect fill="#F1F1F1" height="46.2969" rx="2.5" ry="2.5" style="stroke:#181818;stroke-width:0.5;" width="391" x="209" y="278"/><rect fill="#F1F1F1" height="10" style="stroke:#181818;stroke-width:0.5;" width="15" x="580" y="283"/><rect fill="#F1F1F1" height="2" style="stroke:#181818;stroke-width:0.5;" width="4" x="578" y="285"/><rect fill="#F1F1F1" height="2" style="stroke:#181818;stroke-width:0.5;" width="4" x="578" y="289"/><text fill="#000000" font-family="sans-serif" font-size="14" lengthAdjust="spacing" textLength="351" x="224" y="310.9951">kieker.examples.monitoring.application.Catalog</text></g><!--entity CrmWithREST--><g id="elem_CrmWithREST"><rect fill="#F1F1F1" height="46.2969" rx="2.5" ry="2.5" style="stroke:#181818;stroke-width:0.5;" width="141" x="33" y="278"/><rect fill="#F1F1F1" height="10" style="stroke:#181818;stroke-width:0.5;" width="15" x="154" y="283"/><rect fill="#F1F1F1" height="2" style="stroke:#181818;stroke-width:0.5;" width="4" x="152" y="285"/><rect fill="#F1F1F1" height="2" style="stroke:#181818;stroke-width:0.5;" width="4" x="152" y="289"/><text fill="#000000" font-family="sans-serif" font-size="14" lengthAdjust="spacing" textLength="101" x="48" y="310.9951">CrmWithREST</text></g><!--reverse link Zenbook_Flip_14 to _4--><g id="link_Zenbook_Flip_14__4"><path d="M925.2711,79.2355 C1002.6811,109.1295 1110.49,150.76 1161.25,170.361 " fill="none" id="Zenbook_Flip_14-backto-_4" style="stroke:#181818;stroke-width:1.0;"/><polygon fill="#181818" points="919.674,77.074,926.6287,84.0477,924.3383,78.8752,929.5107,76.5848,919.674,77.074" style="stroke:#181818;stroke-width:1.0;"/><text fill="#000000" font-family="sans-serif" font-size="13" lengthAdjust="spacing" textLength="74" x="1056.5" y="128.0669">deployed in</text></g><!--reverse link Zenbook_Flip_14 to _3--><g id="link_Zenbook_Flip_14__3"><path d="M840.5,83.242 C840.5,109.359 840.5,139.994 840.5,161.878 " fill="none" id="Zenbook_Flip_14-backto-_3" style="stroke:#181818;stroke-width:1.0;"/><polygon fill="#181818" points="840.5,77.242,836.5,86.242,840.5,82.242,844.5,86.242,840.5,77.242" style="stroke:#181818;stroke-width:1.0;"/><text fill="#000000" font-family="sans-serif" font-size="13" lengthAdjust="spacing" textLength="74" x="841.5" y="128.0669">deployed in</text></g><!--reverse link Zenbook_Flip_14 to _1--><g id="link_Zenbook_Flip_14__1"><path d="M754.5476,78.8526 C674.9786,108.8026 563.314,150.834 511.174,170.46 " fill="none" id="Zenbook_Flip_14-backto-_1" style="stroke:#181818;stroke-width:1.0;"/><polygon fill="#181818" points="760.163,76.739,750.3308,76.1659,755.4835,78.5004,753.149,83.6531,760.163,76.739" style="stroke:#181818;stroke-width:1.0;"/><text fill="#000000" font-family="sans-serif" font-size="13" lengthAdjust="spacing" textLength="74" x="653.5" y="128.0669">deployed in</text></g><!--reverse link CrmNode to CrmWithREST_created--><g id="link_CrmNode_CrmWithREST_created"><path d="M103.5,91.258 C103.5,116.457 103.5,142.179 103.5,161.901 " fill="none" id="CrmNode-backto-CrmWithREST_created" style="stroke:#181818;stroke-width:1.0;"/><polygon fill="#181818" points="103.5,85.258,99.5,94.258,103.5,90.258,107.5,94.258,103.5,85.258" style="stroke:#181818;stroke-width:1.0;"/><text fill="#000000" font-family="sans-serif" font-size="13" lengthAdjust="spacing" textLength="74" x="104.5" y="128.0669">deployed in</text></g><!--reverse link _4 to kieker.examples.monitoring.application.Main--><g id="link__4_kieker.examples.monitoring.application.Main"><path d="M1203.178,206.1171 C1217.008,226.9541 1236.09,255.6931 1250.81,277.8636 " fill="none" id="_4-backto-kieker.examples.monitoring.application.Main" style="stroke:#181818;stroke-width:1.0;"/><polygon fill="#181818" points="1199.86,201.118,1201.5043,210.8286,1202.625,205.2839,1208.1697,206.4046,1199.86,201.118" style="stroke:#181818;stroke-width:1.0;"/><text fill="#000000" font-family="sans-serif" font-size="13" lengthAdjust="spacing" textLength="88" x="1230.5" y="244.0669">manifested in</text></g><!--reverse link _3 to kieker.examples.monitoring.application.Bookstore--><g id="link__3_kieker.examples.monitoring.application.Bookstore"><path d="M840.5,207.118 C840.5,227.955 840.5,255.6931 840.5,277.8636 " fill="none" id="_3-backto-kieker.examples.monitoring.application.Bookstore" style="stroke:#181818;stroke-width:1.0;"/><polygon fill="#181818" points="840.5,201.118,836.5,210.118,840.5,206.118,844.5,210.118,840.5,201.118" style="stroke:#181818;stroke-width:1.0;"/><text fill="#000000" font-family="sans-serif" font-size="13" lengthAdjust="spacing" textLength="88" x="841.5" y="244.0669">manifested in</text></g><!--reverse link _1 to kieker.examples.monitoring.application.Catalog--><g id="link__1_kieker.examples.monitoring.application.Catalog"><path d="M468.4472,206.0776 C454.2602,226.9146 434.666,255.6931 419.572,277.8636 " fill="none" id="_1-backto-kieker.examples.monitoring.application.Catalog" style="stroke:#181818;stroke-width:1.0;"/><polygon fill="#181818" points="471.824,201.118,463.4525,206.3062,469.01,205.251,470.0652,210.8086,471.824,201.118" style="stroke:#181818;stroke-width:1.0;"/><text fill="#000000" font-family="sans-serif" font-size="13" lengthAdjust="spacing" textLength="88" x="450.5" y="244.0669">manifested in</text></g><!--reverse link CrmWithREST_created to CrmWithREST--><g id="link_CrmWithREST_created_CrmWithREST"><path d="M103.5,207.118 C103.5,227.955 103.5,255.6931 103.5,277.8636 " fill="none" id="CrmWithREST_created-backto-CrmWithREST" style="stroke:#181818;stroke-width:1.0;"/><polygon fill="#181818" points="103.5,201.118,99.5,210.118,103.5,206.118,107.5,210.118,103.5,201.118" style="stroke:#181818;stroke-width:1.0;"/><text fill="#000000" font-family="sans-serif" font-size="13" lengthAdjust="spacing" textLength="88" x="104.5" y="244.0669">manifested in</text></g><!--SRC=[dP9RIyD048NVzrSCllXYKaBpLAHueLx0YdX1K2ICoRHPkjbTTgTK_xsR9gtH-c0QDh1xcFbEScOFuR6K7i92k5Ee-Mbw0uN4kSCg5eTmhMV6LSZIQ0YBIm9jk3ddgE6TO6QMke2I78sWPBP-D1ZO6hMiL9oRAb1EDKmAoSOT1G8oe59cvO4Dv8wGQUFeZ-el-ObQhLPn5xTb3-eNH7YqAGZWXVIxCOliGacR9Icy2e2j6jLgbAHhxVWOBd7oGVcLyGpZiNXh4UUkkgqtJMjx-hkb5XtvwLBn298t8T2nd67ES72I7W1woDAkDcoqOLTB6YtfQC7pMN9vFtbuZ9fiYdLHHyzQNOYGXZMQTEXRI5gGY-a3Awl8nvNHTTvIpsEqLibyFR9uYbAlUJtgzx0v2udxe5CVhstJ7eRdoAZCl8zTsz8rwuJyE_Hmox8KegMDnZiNRGG5MMK-gO2GLZRyNrdohx8_vjxsRUxgpthHOx0jAAizAzHoHfuRIj-9RKZ3VKdjC3QSP8VJoU7x_tUI-TNr1G00]--></g></svg>