<?xml version="1.0" encoding="windows-1252" standalone="no"?>
<svg xmlns="http://www.w3.org/2000/svg" xmlns:xlink="http://www.w3.org/1999/xlink" contentStyleType="text/css" height="737px" preserveAspectRatio="none" style="width:1278px;height:737px;background:#FFFFFF;" version="1.1" viewBox="0 0 1278 737" width="1278px" zoomAndPan="magnify"><defs/><g><!--entity _Entry______--><g id="elem__Entry______"><ellipse cx="1214.5" cy="159" fill="#F1F1F1" rx="8" ry="8" style="stroke:#181818;stroke-width:0.5;"/><text fill="#000000" font-family="sans-serif" font-size="14" lengthAdjust="spacing" textLength="84" x="1172.5" y="188.9951">'Entry'():&lt;&gt;</text></g><!--entity public_static_main_java.lang.String____void--><g id="elem_public_static_main_java.lang.String____void"><ellipse cx="1036.5" cy="294" fill="#F1F1F1" rx="8" ry="8" style="stroke:#181818;stroke-width:0.5;"/><text fill="#000000" font-family="sans-serif" font-size="14" lengthAdjust="spacing" textLength="295" x="889" y="323.9951">public static main(java.lang.String[]):void</text></g><!--entity public_Bookstore__--><g id="elem_public_Bookstore__"><ellipse cx="648.5" cy="429" fill="#F1F1F1" rx="8" ry="8" style="stroke:#181818;stroke-width:0.5;"/><text fill="#000000" font-family="sans-serif" font-size="14" lengthAdjust="spacing" textLength="133" x="582" y="458.9951">public Bookstore()</text></g><!--entity public_Catalog__--><g id="elem_public_Catalog__"><ellipse cx="329.5" cy="564" fill="#F1F1F1" rx="8" ry="8" style="stroke:#181818;stroke-width:0.5;"/><text fill="#000000" font-family="sans-serif" font-size="14" lengthAdjust="spacing" textLength="113" x="273" y="593.9951">public Catalog()</text></g><!--entity public_CRM_kieker.examples.monitoring.application.Catalog_--><g id="elem_public_CRM_kieker.examples.monitoring.application.Catalog_"><ellipse cx="656.5" cy="564" fill="#F1F1F1" rx="8" ry="8" style="stroke:#181818;stroke-width:0.5;"/><text fill="#000000" font-family="sans-serif" font-size="14" lengthAdjust="spacing" textLength="441" x="436" y="593.9951">public CRM(kieker.examples.monitoring.application.Catalog)</text></g><!--entity public_searchBook___void--><g id="elem_public_searchBook___void"><ellipse cx="1031.5" cy="429" fill="#F1F1F1" rx="8" ry="8" style="stroke:#181818;stroke-width:0.5;"/><text fill="#000000" font-family="sans-serif" font-size="14" lengthAdjust="spacing" textLength="177" x="943" y="458.9951">public searchBook():void</text></g><!--entity public_getBook_boolean__void--><g id="elem_public_getBook_boolean__void"><ellipse cx="1008.5" cy="699" fill="#F1F1F1" rx="8" ry="8" style="stroke:#181818;stroke-width:0.5;"/><text fill="#000000" font-family="sans-serif" font-size="14" lengthAdjust="spacing" textLength="213" x="902" y="728.9951">public getBook(boolean):void</text></g><!--entity public_getOffers___void--><g id="elem_public_getOffers___void"><ellipse cx="1008.5" cy="564" fill="#F1F1F1" rx="8" ry="8" style="stroke:#181818;stroke-width:0.5;"/><text fill="#000000" font-family="sans-serif" font-size="14" lengthAdjust="spacing" textLength="163" x="927" y="593.9951">public getOffers():void</text></g><!--entity _Entry_--><g id="elem__Entry_"><rect fill="#F1F1F1" height="46.2969" rx="2.5" ry="2.5" style="stroke:#181818;stroke-width:0.5;" width="87" x="1171" y="7"/><rect fill="#F1F1F1" height="10" style="stroke:#181818;stroke-width:0.5;" width="15" x="1238" y="12"/><rect fill="#F1F1F1" height="2" style="stroke:#181818;stroke-width:0.5;" width="4" x="1236" y="14"/><rect fill="#F1F1F1" height="2" style="stroke:#181818;stroke-width:0.5;" width="4" x="1236" y="18"/><text fill="#000000" font-family="sans-serif" font-size="14" lengthAdjust="spacing" textLength="47" x="1186" y="39.9951">'Entry'</text></g><!--entity kieker.examples.monitoring.application.Main--><g id="elem_kieker.examples.monitoring.application.Main"><rect fill="#F1F1F1" height="46.2969" rx="2.5" ry="2.5" style="stroke:#181818;stroke-width:0.5;" width="369" x="760" y="136"/><rect fill="#F1F1F1" height="10" style="stroke:#181818;stroke-width:0.5;" width="15" x="1109" y="141"/><rect fill="#F1F1F1" height="2" style="stroke:#181818;stroke-width:0.5;" width="4" x="1107" y="143"/><rect fill="#F1F1F1" height="2" style="stroke:#181818;stroke-width:0.5;" width="4" x="1107" y="147"/><text fill="#000000" font-family="sans-serif" font-size="14" lengthAdjust="spacing" textLength="329" x="775" y="168.9951">kieker.examples.monitoring.application.Main</text></g><!--entity kieker.examples.monitoring.application.Bookstore--><g id="elem_kieker.examples.monitoring.application.Bookstore"><rect fill="#F1F1F1" height="46.2969" rx="2.5" ry="2.5" style="stroke:#181818;stroke-width:0.5;" width="411" x="435" y="271"/><rect fill="#F1F1F1" height="10" style="stroke:#181818;stroke-width:0.5;" width="15" x="826" y="276"/><rect fill="#F1F1F1" height="2" style="stroke:#181818;stroke-width:0.5;" width="4" x="824" y="278"/><rect fill="#F1F1F1" height="2" style="stroke:#181818;stroke-width:0.5;" width="4" x="824" y="282"/><text fill="#000000" font-family="sans-serif" font-size="14" lengthAdjust="spacing" textLength="371" x="450" y="303.9951">kieker.examples.monitoring.application.Bookstore</text></g><!--entity kieker.examples.monitoring.application.Catalog--><g id="elem_kieker.examples.monitoring.application.Catalog"><rect fill="#F1F1F1" height="46.2969" rx="2.5" ry="2.5" style="stroke:#181818;stroke-width:0.5;" width="391" x="7" y="406"/><rect fill="#F1F1F1" height="10" style="stroke:#181818;stroke-width:0.5;" width="15" x="378" y="411"/><rect fill="#F1F1F1" height="2" style="stroke:#181818;stroke-width:0.5;" width="4" x="376" y="413"/><rect fill="#F1F1F1" height="2" style="stroke:#181818;stroke-width:0.5;" width="4" x="376" y="417"/><text fill="#000000" font-family="sans-serif" font-size="14" lengthAdjust="spacing" textLength="351" x="22" y="438.9951">kieker.examples.monitoring.application.Catalog</text></g><!--entity CrmWithREST--><g id="elem_CrmWithREST"><rect fill="#F1F1F1" height="46.2969" rx="2.5" ry="2.5" style="stroke:#181818;stroke-width:0.5;" width="141" x="759" y="406"/><rect fill="#F1F1F1" height="10" style="stroke:#181818;stroke-width:0.5;" width="15" x="880" y="411"/><rect fill="#F1F1F1" height="2" style="stroke:#181818;stroke-width:0.5;" width="4" x="878" y="413"/><rect fill="#F1F1F1" height="2" style="stroke:#181818;stroke-width:0.5;" width="4" x="878" y="417"/><text fill="#000000" font-family="sans-serif" font-size="14" lengthAdjust="spacing" textLength="101" x="774" y="438.9951">CrmWithREST</text></g><!--link _Entry_ to _Entry______--><g id="link__Entry___Entry______"><path d="M1214.5,53.122 C1214.5,81.833 1214.5,124.533 1214.5,143.802 " fill="none" id="_Entry_-to-_Entry______" style="stroke:#181818;stroke-width:1.0;"/><polygon fill="#181818" points="1214.5,149.802,1218.5,140.802,1214.5,144.802,1210.5,140.802,1214.5,149.802" style="stroke:#181818;stroke-width:1.0;"/><text fill="#000000" font-family="sans-serif" font-size="13" lengthAdjust="spacing" textLength="55" x="1215.5" y="96.0669">provides</text></g><!--link kieker.examples.monitoring.application.Main to public_static_main_java.lang.String____void--><g id="link_kieker.examples.monitoring.application.Main_public_static_main_java.lang.String____void"><path d="M959.899,182.261 C980.769,212.432 1013.6061,259.9039 1027.4761,279.9499 " fill="none" id="kieker.examples.monitoring.application.Main-to-public_static_main_java.lang.String____void" style="stroke:#181818;stroke-width:1.0;"/><polygon fill="#181818" points="1030.89,284.884,1029.0585,275.2069,1028.0451,280.7723,1022.4797,279.7588,1030.89,284.884" style="stroke:#181818;stroke-width:1.0;"/><text fill="#000000" font-family="sans-serif" font-size="13" lengthAdjust="spacing" textLength="55" x="997.5" y="231.0669">provides</text></g><!--link kieker.examples.monitoring.application.Bookstore to public_Bookstore__--><g id="link_kieker.examples.monitoring.application.Bookstore_public_Bookstore__"><path d="M641.839,317.261 C643.654,347.432 646.4457,393.8488 647.6517,413.8948 " fill="none" id="kieker.examples.monitoring.application.Bookstore-to-public_Bookstore__" style="stroke:#181818;stroke-width:1.0;"/><polygon fill="#181818" points="648.012,419.884,651.4643,410.66,647.7117,414.893,643.4787,411.1405,648.012,419.884" style="stroke:#181818;stroke-width:1.0;"/><text fill="#000000" font-family="sans-serif" font-size="13" lengthAdjust="spacing" textLength="55" x="646.5" y="366.0669">provides</text></g><!--link kieker.examples.monitoring.application.Bookstore to public_searchBook___void--><g id="link_kieker.examples.monitoring.application.Bookstore_public_searchBook___void"><path d="M684.042,317.165 C717.043,333.347 763.841,354.99 806.5,370 C827.714,377.464 976.8754,414.4948 1016.4854,424.2888 " fill="none" id="kieker.examples.monitoring.application.Bookstore-to-public_searchBook___void" style="stroke:#181818;stroke-width:1.0;"/><polygon fill="#181818" points="1022.31,425.729,1014.5332,419.6857,1017.4562,424.5288,1012.613,427.4518,1022.31,425.729" style="stroke:#181818;stroke-width:1.0;"/><text fill="#000000" font-family="sans-serif" font-size="13" lengthAdjust="spacing" textLength="55" x="807.5" y="366.0669">provides</text></g><!--link kieker.examples.monitoring.application.Catalog to public_Catalog__--><g id="link_kieker.examples.monitoring.application.Catalog_public_Catalog__"><path d="M223.757,452.261 C252.567,482.432 298.4654,530.4985 317.6064,550.5445 " fill="none" id="kieker.examples.monitoring.application.Catalog-to-public_Catalog__" style="stroke:#181818;stroke-width:1.0;"/><polygon fill="#181818" points="321.75,554.884,318.4276,545.6124,318.297,551.2678,312.6417,551.1372,321.75,554.884" style="stroke:#181818;stroke-width:1.0;"/><text fill="#000000" font-family="sans-serif" font-size="13" lengthAdjust="spacing" textLength="55" x="275.5" y="501.0669">provides</text></g><!--link kieker.examples.monitoring.application.Catalog to public_getBook_boolean__void--><g id="link_kieker.examples.monitoring.application.Catalog_public_getBook_boolean__void"><path d="M192.002,452.126 C177.3,486.745 156.012,553.802 190.5,593 C247.129,657.3625 907.7607,692.8935 993.4567,697.2455 " fill="none" id="kieker.examples.monitoring.application.Catalog-to-public_getBook_boolean__void" style="stroke:#181818;stroke-width:1.0;"/><polygon fill="#181818" points="999.449,697.5498,990.6635,693.0985,994.4554,697.2962,990.2577,701.0882,999.449,697.5498" style="stroke:#181818;stroke-width:1.0;"/><text fill="#000000" font-family="sans-serif" font-size="13" lengthAdjust="spacing" textLength="55" x="191.5" y="568.5669">provides</text></g><!--link CrmWithREST to public_getOffers___void--><g id="link_CrmWithREST_public_getOffers___void"><path d="M859.461,452.261 C901.062,483.172 969.2579,533.8426 994.6639,552.7196 " fill="none" id="CrmWithREST-to-public_getOffers___void" style="stroke:#181818;stroke-width:1.0;"/><polygon fill="#181818" points="999.48,556.298,994.6415,547.7196,995.4666,553.316,989.8702,554.1411,999.48,556.298" style="stroke:#181818;stroke-width:1.0;"/><text fill="#000000" font-family="sans-serif" font-size="13" lengthAdjust="spacing" textLength="55" x="931.5" y="501.0669">provides</text></g><!--link CrmWithREST to public_CRM_kieker.examples.monitoring.application.Catalog_--><g id="link_CrmWithREST_public_CRM_kieker.examples.monitoring.application.Catalog_"><path d="M800.544,452.261 C760.529,483.024 695.2037,533.245 670.3297,552.368 " fill="none" id="CrmWithREST-to-public_CRM_kieker.examples.monitoring.application.Catalog_" style="stroke:#181818;stroke-width:1.0;"/><polygon fill="#181818" points="665.573,556.025,675.1461,553.7107,669.537,552.9775,670.2701,547.3684,665.573,556.025" style="stroke:#181818;stroke-width:1.0;"/><text fill="#000000" font-family="sans-serif" font-size="13" lengthAdjust="spacing" textLength="55" x="754.5" y="501.0669">provides</text></g><!--link _Entry______ to public_static_main_java.lang.String____void--><g id="link__Entry_______public_static_main_java.lang.String____void"><path d="M1205.43,166.778 C1174.96,189.54 1081.3263,259.5065 1050.5763,282.4845 " fill="none" id="_Entry______-to-public_static_main_java.lang.String____void" style="stroke:#181818;stroke-width:1.0;"/><polygon fill="#181818" points="1045.77,286.076,1055.3739,283.8929,1049.7753,283.083,1050.5851,277.4845,1045.77,286.076" style="stroke:#181818;stroke-width:1.0;"/><text fill="#000000" font-family="sans-serif" font-size="13" lengthAdjust="spacing" textLength="28" x="1136.5" y="231.0669">calls</text></g><!--link public_static_main_java.lang.String____void to public_Bookstore__--><g id="link_public_static_main_java.lang.String____void_public_Bookstore__"><path d="M1027.46,299.894 C1002.997,312.961 933.19,349.096 871.5,370 C815.34,389.03 798.809,384.778 741.5,400 C710.536,408.224 680.0173,417.8252 663.3943,423.1772 " fill="none" id="public_static_main_java.lang.String____void-to-public_Bookstore__" style="stroke:#181818;stroke-width:1.0;"/><polygon fill="#181818" points="657.683,425.016,667.4758,426.0653,662.4424,423.4836,665.024,418.4502,657.683,425.016" style="stroke:#181818;stroke-width:1.0;"/><text fill="#000000" font-family="sans-serif" font-size="13" lengthAdjust="spacing" textLength="28" x="914.5" y="366.0669">calls</text></g><!--link public_Bookstore__ to public_Catalog__--><g id="link_public_Bookstore___public_Catalog__"><path d="M639.297,433.837 C592.919,453.173 390.743,537.4661 344.278,556.8381 " fill="none" id="public_Bookstore__-to-public_Catalog__" style="stroke:#181818;stroke-width:1.0;"/><polygon fill="#181818" points="338.74,559.147,348.5862,559.3757,343.355,557.2229,345.5077,551.9917,338.74,559.147" style="stroke:#181818;stroke-width:1.0;"/><text fill="#000000" font-family="sans-serif" font-size="13" lengthAdjust="spacing" textLength="28" x="509.5" y="501.0669">calls</text></g><!--link public_Bookstore__ to public_CRM_kieker.examples.monitoring.application.Catalog_--><g id="link_public_Bookstore___public_CRM_kieker.examples.monitoring.application.Catalog_"><path d="M649,438.32 C650.437,462.205 654.2026,524.8128 655.6396,548.6938 " fill="none" id="public_Bookstore__-to-public_CRM_kieker.examples.monitoring.application.Catalog_" style="stroke:#181818;stroke-width:1.0;"/><polygon fill="#181818" points="656,554.683,659.4522,545.459,655.6997,549.692,651.4666,545.9395,656,554.683" style="stroke:#181818;stroke-width:1.0;"/><text fill="#000000" font-family="sans-serif" font-size="13" lengthAdjust="spacing" textLength="28" x="654.5" y="501.0669">calls</text></g><!--link public_static_main_java.lang.String____void to public_searchBook___void--><g id="link_public_static_main_java.lang.String____void_public_searchBook___void"><path d="M1036.19,303.32 C1035.29,327.205 1032.936,389.8063 1032.036,413.6873 " fill="none" id="public_static_main_java.lang.String____void-to-public_searchBook___void" style="stroke:#181818;stroke-width:1.0;"/><polygon fill="#181818" points="1031.81,419.683,1036.1461,410.84,1031.9983,414.6865,1028.1518,410.5387,1031.81,419.683" style="stroke:#181818;stroke-width:1.0;"/><text fill="#000000" font-family="sans-serif" font-size="13" lengthAdjust="spacing" textLength="28" x="1035.5" y="366.0669">calls</text></g><!--link public_searchBook___void to public_getBook_boolean__void--><g id="link_public_searchBook___void_public_getBook_boolean__void"><path d="M1040.68,437.485 C1059.16,453.212 1100.35,491.824 1115.5,535 C1124.03,559.325 1125.48,569.231 1115.5,593 C1095.05,641.7164 1044.8724,676.0713 1022.8524,689.5019 " fill="none" id="public_searchBook___void-to-public_getBook_boolean__void" style="stroke:#181818;stroke-width:1.0;"/><polygon fill="#181818" points="1017.73,692.6262,1027.4964,691.3547,1021.9987,690.0226,1023.3307,684.5248,1017.73,692.6262" style="stroke:#181818;stroke-width:1.0;"/><text fill="#000000" font-family="sans-serif" font-size="13" lengthAdjust="spacing" textLength="28" x="1122.5" y="568.5669">calls</text></g><!--link public_searchBook___void to public_getOffers___void--><g id="link_public_searchBook___void_public_getOffers___void"><path d="M1030.06,438.32 C1025.93,462.205 1015.0925,524.8898 1010.9625,548.7708 " fill="none" id="public_searchBook___void-to-public_getOffers___void" style="stroke:#181818;stroke-width:1.0;"/><polygon fill="#181818" points="1009.94,554.683,1015.4152,546.4963,1010.7921,549.7561,1007.5322,545.133,1009.94,554.683" style="stroke:#181818;stroke-width:1.0;"/><text fill="#000000" font-family="sans-serif" font-size="13" lengthAdjust="spacing" textLength="28" x="1022.5" y="501.0669">calls</text></g><!--link public_getOffers___void to public_getBook_boolean__void--><g id="link_public_getOffers___void_public_getBook_boolean__void"><path d="M1008.5,573.32 C1008.5,597.205 1008.5,659.8023 1008.5,683.6834 " fill="none" id="public_getOffers___void-to-public_getBook_boolean__void" style="stroke:#181818;stroke-width:1.0;"/><polygon fill="#181818" points="1008.5,689.6834,1012.5,680.6834,1008.5,684.6834,1004.5,680.6834,1008.5,689.6834" style="stroke:#181818;stroke-width:1.0;"/><text fill="#000000" font-family="sans-serif" font-size="13" lengthAdjust="spacing" textLength="28" x="1009.5" y="636.0669">calls</text></g><!--SRC=[hPLHRvim4CVV-HIdleH8XRoZgL9NvM7Iearffpv45Rg00IzW8zi9wxUl8PJPnUq2Au87xF_z_lRv3XRmK509-aRuMI9JlpRV8QMO2wn2Rm7VMCP5XOfo1lfM1G76rVazGGPx0Xa_iXGA8aW4XLArZ5QhkaKTgp9CUAKfjmpMALLSN6i2Ai2ov8q4nI4H11LvTPJNxKfiLDCqeOaRsAls0S_pA5D4P9WGk5gicHBF2tyPVRcv0fGGTmDnTvd2-hWlQGAotKe25LBc_yOJXfgTX_TAK9RldfRHYTEquvpryLaVj_huhRwrQFKEcw-S7wJUFl6N9cqOTgxj3XMMFBT3-a5tm7RZ7oWv416IFrZL9P5XnLcRTxsy4EjQgxgZ2tkCZTvkucdXpemI54dHxintf6-OV3zNEL5Tz9xpaY0RGtf1t0i-0lt8CYAaxsISvrxNuUdAgZaZJ0r5PDQFENrXZZQwHZh41FqCcw66fdWDGJCC-xEVOjU7c6PtedgagjYkxnywal6kEthNf_q9WfGtBBYn-XWYg0K_qPH8RpSXktzf4xfvZjcGtf6ZqV6V2nvrrXnyVquZ-F3H-Koeiuqj0wCcND5M0rySEEChPx8zgn23oRMKw5-VzAR41EzLZuKofmBtoLsadvMT_zgKgt9ju4WG_BkA9X7ULf8LF9g_rFq5]--></g></svg>